<?xml version="1.0" encoding="UTF-8"?><svg version="1.1" width="256px" height="72px" viewBox="0 0 256.0 72.0" xmlns="http://www.w3.org/2000/svg" xmlns:xlink="http://www.w3.org/1999/xlink"><defs><clipPath id="i0"><path d="M859,0 L859,612 L0,612 L0,0 L859,0 Z"></path></clipPath><clipPath id="i1"><path d="M858.897,0 L858.897,612.288 L0,612.288 L0,0 L858.897,0 Z"></path></clipPath><clipPath id="i2"><path d="M2.54217266,0.247405179 C3.64417266,-0.254594821 4.74317266,-0.0885948213 5.07717266,1.64740518 C5.04517266,1.74740518 5.04517266,1.84740518 5.04517266,1.94840518 C4.11017266,3.05040518 3.67617266,3.88440518 3.27617266,5.35240518 C3.04217266,5.75240518 2.84217266,5.75240518 2.54217266,5.81940518 C1.27317266,5.28540518 -0.0948273401,4.71840518 0.00517265994,3.08340518 C0.20517266,2.08040518 1.37217266,0.780405179 2.54217266,0.247405179 Z"></path></clipPath><clipPath id="i3"><path d="M2.26994613,0.651695128 C3.70494613,-0.248304872 4.20594613,-0.416304872 5.23894613,1.45269513 C5.30694613,2.65369513 4.83894613,4.58969513 4.37194613,5.82369513 C4.20594613,7.09469513 3.30594613,11.8286951 4.83894613,12.6626951 C5.60894613,12.6306951 5.73994613,11.4306951 6.20794613,12.2996951 C6.34194613,14.5676951 4.56794613,18.7746951 2.50294613,19.1406951 C0.300946128,17.7386951 0.300946128,13.8336951 0.0329461284,11.6636951 C-0.0330538716,7.22669513 -0.232053872,3.95569513 2.26994613,0.651695128 Z"></path></clipPath><clipPath id="i4"><path d="M8.376,0.390930218 C9.377,0.121930218 10.88,-0.143069782 12.014,0.0889302185 C13.449,0.354930218 14.416,1.35793022 13.449,3.89493022 C12.981,4.46093022 12.515,5.12893022 12.014,5.76293022 C11.314,6.69593022 10.602,7.55193022 9.835,8.01893022 C9.747,8.11293022 9.683,8.15993022 9.543,8.23293022 C9.511,9.26693022 9.411,9.50093022 10.512,9.86793022 C10.378,11.2379302 8.743,13.1709302 7.976,14.3389302 C8.04266667,15.7862636 9.17733333,15.8229302 10.3515556,15.6770784 L10.64534,15.6375237 C11.1343704,15.5676308 11.6153889,15.4838191 12.014,15.4749302 C12.214,15.4749302 12.415,15.4749302 12.582,15.5069302 C13.515,16.4439302 12.815,17.0449302 12.014,17.4099302 C11.647,17.6099302 11.246,17.7439302 10.978,17.8439302 C10.544,18.0779302 10.113,18.3109302 9.679,18.5779302 C9.73118182,24.5128133 9.75557851,27.2875639 9.76200288,28.8419451 L9.76281587,29.0609289 C9.76293037,29.0960493 9.76303446,29.1305001 9.76312828,29.1643092 L9.7630061,30.0142659 C9.76222831,30.204608 9.76088472,30.3719039 9.75904823,30.5305638 L9.75757959,30.6481645 C9.75420223,30.9004335 9.74957143,31.1394107 9.744,31.4269302 C9.309,32.7299302 8.709,34.2969302 7.409,34.4969302 C5.741,33.1969302 5.54,31.7949302 5.373,29.9249302 L5.4006,29.7718242 C5.50599,29.3323902 5.8074,29.0674302 6.108,28.8559302 C6.156,28.8419302 6.196,28.8279302 6.24,28.8199302 C6.942,28.5539302 6.851,28.5489302 6.975,28.4229302 C6.79514035,22.6782285 6.69393629,20.4545559 6.68748691,19.6452309 L6.6874943,19.4987443 C6.68898215,19.3564141 6.69542105,19.2797197 6.707,19.2439302 C5.039,19.4119302 4.471,20.4479302 3.438,21.6819302 C3.403,21.7479302 3.403,21.8479302 3.403,21.9479302 C3.424,21.9889302 3.478,22.0559302 3.411,22.0889302 C3.411,22.1219302 3.274,22.1029302 3.204,22.1149302 L2.704,22.1149302 C1.701,22.0159302 0.6,21.6819302 0.035,21.2479302 C0.035,21.1819302 0,21.0809302 0,20.9809302 C0.868,20.1469302 1.736,19.1139302 2.704,18.2439302 C2.801,18.1449302 2.904,18.0779302 3.003,17.9789302 C3.0695,17.7454302 3.34475,17.4366802 3.645125,17.1193052 L3.94707407,16.8015228 C4.14488889,16.5910413 4.32666667,16.3865969 4.438,16.2079302 C5.54,15.3739302 6.24,13.7039302 7.175,12.6709302 C7.274,12.2709302 7.409,11.9039302 7.508,11.5359302 C7.443,9.90193022 6.474,8.73293022 7.109,7.36393022 C7.708,6.69593022 9.711,4.82993022 10.113,3.76093022 L10.113392,3.63690622 C10.13848,3.46769022 10.246,3.28593022 10.246,3.12593022 C9.244,1.85793022 7.651,4.19793022 6.975,4.46093022 C5.373,4.36293022 4.638,4.02893022 5.439,2.42593022 C5.531,2.26993022 5.707,2.15893022 6.074,1.89293022 C6.0468,1.57133022 7.2164,0.973250218 7.941328,0.610690218 L8.189126,0.486770218 C8.26264,0.449810218 8.326,0.417530218 8.376,0.390930218 Z"></path></clipPath><clipPath id="i5"><path d="M2.002,0.0178024141 C3.772,-0.116197586 4.839,0.485802414 5.808,2.52180241 C6.208,5.05680241 3.638,5.85780241 1.769,6.32480241 C1.401,6.42580241 1.034,6.49180241 0.732,6.55780241 C0.534,6.49180241 0.299,6.45880241 0.101,6.42580241 C0.034,6.32480241 0.034,6.22480241 0,6.15880241 C0.601,4.75680241 2.002,4.28880241 1.501,2.41980241 C0.466,1.65280241 1.034,0.585802414 1.769,0.117802414 C1.869,0.0838024141 1.936,0.0528024141 2.002,0.0178024141 Z"></path></clipPath><clipPath id="i6"><path d="M1.83060297,4.71327034 C-1.70739703,3.01127034 0.427602966,-1.22672966 3.63260297,0.342270337 C3.96460297,0.652270337 4.60160297,1.79627034 4.56760297,3.49827034 C4.54760297,3.53527034 4.55860297,3.58427034 4.52460297,3.58427034 C4.49460297,3.61827034 4.49160297,3.58427034 4.43360297,3.67927034 C3.46460297,4.58027034 3.16460297,4.58027034 1.83060297,4.71327034 Z"></path></clipPath><clipPath id="i7"><path d="M2.1586151,0.0118822179 C2.4236151,-0.0221177821 2.7586151,0.0118822179 3.0596151,0.178882218 C3.6266151,1.34688222 2.9926151,3.28188222 2.1586151,4.38288222 C2.0246151,4.55088222 1.8896151,4.68388222 1.7256151,4.81888222 C1.5446151,4.88888222 1.3466151,4.91788222 1.1906151,4.88488222 C-1.1133849,3.61688222 0.322615105,0.178882218 2.1586151,0.0118822179 Z"></path></clipPath><clipPath id="i8"><path d="M3.95356031,1.38124254 C4.38656031,0.579242544 5.88856031,-0.588757456 6.75656031,0.346242544 C6.82356031,1.51424254 6.72356031,2.71724254 6.95656031,4.01624254 C8.42556031,4.25124254 8.99256031,4.58524254 9.09256031,6.42124254 L9.09256031,6.85424254 C8.79456031,7.65524254 8.45956031,8.02224254 7.72456031,8.45724254 C6.48856031,9.02324254 6.15656031,9.02324254 5.55456031,10.2262425 C5.42256031,12.2952425 4.98756031,14.5312425 5.22156031,16.7662425 C6.15656031,16.6342425 7.17556031,14.6952425 8.01056031,13.9952425 C8.01856031,13.9272425 7.99156031,13.8952425 8.02556031,13.8632425 C8.32556031,13.6952425 8.59156031,13.4622425 8.99256031,13.5272425 C9.12656031,16.1652425 4.98756031,21.1372425 2.88356031,21.6732425 C1.18256031,20.6032425 1.41556031,17.8002425 1.34956031,16.2652425 C1.48556031,15.4302425 2.15156031,12.8282425 1.88456031,11.7932425 C-0.0514396925,10.9942425 -0.452439693,10.6932425 0.482560307,8.62224254 C1.21756031,7.88924254 2.38456031,7.12024254 3.21956031,6.52024254 C3.42056031,4.41924254 2.28456031,2.68224254 3.95356031,1.38124254 Z"></path></clipPath><clipPath id="i9"><path d="M1.19325,1.63783115 C1.89525,0.13583115 3.29625,-0.99916885 4.19925,1.33683115 C4.49925,4.94283115 4.03125,9.91283115 2.59425,13.2178312 C1.86125,14.2198312 1.00625,14.6288312 0.25825,14.6868312 C0.12625,14.4188312 0.05925,14.1198312 0.02625,13.8198312 C-0.00875,13.6198312 -0.00875,13.4518312 0.02625,13.2528312 C0.12625,12.0498312 0.69225,10.7818312 0.96025,9.88083115 C1.22725,7.00983115 1.26025,4.37283115 1.19325,1.63783115 Z"></path></clipPath><clipPath id="i10"><path d="M0.198011487,0.653969078 C0.998011487,0.151969078 1.49801149,-0.249030922 2.59901149,0.184969078 C2.96801149,0.451969078 3.16801149,0.685969078 3.50101149,1.28696908 C3.52509482,3.02451074 3.54064864,4.14667307 3.54918338,5.19610195 L3.55190665,5.56435215 C3.55474951,5.99251572 3.55643242,6.41917152 3.55706082,6.88220425 L3.55712477,7.71867806 C3.55573024,9.0480472 3.54776149,10.7610941 3.53501149,13.5019691 C3.48701149,13.6369691 3.42301149,16.2999691 3.53501149,16.9729691 C3.48420714,17.010143 3.46957103,18.3089402 3.46763758,19.9596287 L3.46788649,21.0404691 C3.46951149,22.2436756 3.47477047,23.5219577 3.47614718,24.58392 L3.47609639,25.4942644 C3.47530071,25.9102281 3.4731854,26.2610126 3.46901149,26.5179691 C3.10301149,28.7189691 2.73501149,29.5869691 0.664011487,29.7879691 C-0.234988513,29.1549691 -0.0359885133,28.7189691 0.198011487,27.8849691 C0.632011487,19.0399691 0.398011487,10.0309691 0.131011487,1.31996908 C0.131011487,1.08796908 0.165011487,0.852969078 0.198011487,0.653969078 Z"></path></clipPath><clipPath id="i11"><path d="M0.618830836,3.348151 C1.08583084,2.179151 1.28583084,-0.588849003 2.98683084,0.112150997 C3.08683084,0.245150997 3.45483084,0.512150997 3.59083084,0.712150997 C3.42183084,3.782151 3.52183084,7.420151 2.45383084,10.388151 C2.01783084,10.689151 1.75183084,10.891151 1.25283084,10.924151 C-0.986169164,9.855151 0.417830836,4.816151 0.618830836,3.348151 Z"></path></clipPath><clipPath id="i12"><path d="M0.0111606619,1.50267584 C-0.0908393381,0.301675843 0.512160662,-0.133324157 1.58016066,0.0346758434 C1.98016066,0.702675843 2.48216066,1.23467584 2.98116066,1.80267584 C3.41616066,2.26967584 3.84816066,2.77067584 4.25016066,3.33767584 C4.28416066,3.33767584 4.30616066,3.39267584 4.42516066,3.48867584 C4.56416066,3.65867584 4.77516066,3.98067584 5.25116066,4.27767584 C5.47016066,4.50867584 5.53116066,4.53567584 5.76916066,4.68467584 C6.00216066,4.90667584 6.17016066,5.23467584 6.66416066,5.47267584 C6.66416066,5.54167584 6.94916066,5.62667584 6.94916066,5.69367584 C7.35016066,5.92867584 8.16616066,6.74667584 8.51316066,6.84667584 C8.51316066,6.91267584 8.66816066,6.94567584 8.72316066,7.00167584 C8.75316066,7.02967584 8.66216066,6.97867584 8.82016066,7.07667584 C8.82016066,7.10967584 8.98316066,7.09267584 8.98316066,7.15867584 C10.0201607,7.62567584 11.1571607,8.14467584 12.2921607,8.94367584 C12.4581607,9.15967584 12.3791607,9.44567584 12.3581607,9.67867584 C11.0581607,11.1146758 9.52116066,10.9476758 7.81916066,11.0136758 C6.11716066,10.0456758 4.41616066,8.54467584 2.98116066,6.80867584 C1.64816066,5.17467584 0.546160662,3.30467584 0.0111606619,1.50267584 Z"></path></clipPath><clipPath id="i13"><path d="M10.446,0.00246265639 C11.914,-0.0315373436 12.015,0.268462656 12.715,2.03846266 C12.948,3.30546266 12.948,4.54046266 12.984,5.97546266 C13.081,5.97546266 13.448,5.74246266 14.25,5.30946266 C14.483,5.17446266 14.751,5.04046266 15.051,4.90846266 C16.052,5.07546266 16.42,5.30946266 17.188,6.44246266 C17.5414545,8.51982629 16.4663636,9.34202464 15.1501593,9.95737175 L14.8541831,10.0911367 C14.6548632,10.1786114 14.4521818,10.2632505 14.25,10.3484627 C13.685,10.5804627 13.116,10.8154627 12.647,11.1494627 C11.513,12.5834627 10.4,14.7854627 9.799,16.6524627 C9.755,16.6874627 9.761,16.7444627 9.727,16.8284627 C8.626,19.8994627 6.809,22.8304627 5.039,25.4654627 C4.07,26.3344627 3.338,26.3344627 2.171,26.4324627 C1.036,26.2334627 0.099,25.7334627 0,24.5974627 C0.099,24.3994627 0.267,24.1984627 0.399,23.9964627 C1.868,23.0964627 4.706,20.9944627 5.273,19.0904627 C5.551,18.7974627 6.708,16.2864627 6.875,15.6204627 C7.008,15.4514627 7.343,13.9194627 7.142,13.6524627 C5.439,13.1524627 4.004,14.7864627 3.604,12.3514627 C3.601,11.2974627 3.906,10.6814627 4.639,9.84846266 C6.272,8.91446266 8.043,8.04546266 9.745,7.17846266 C10.312,6.37746266 10.68,3.17246266 9.845,2.40546266 C7.942,1.47246266 9.178,0.268462656 10.446,0.00246265639 Z"></path></clipPath><clipPath id="i14"><path d="M1.7780644,0.299051355 C2.0120644,-0.0369486454 2.3460644,-0.101948645 3.0790644,0.166051355 C3.4140644,0.932051355 3.5480644,1.53405135 3.5810644,2.43305135 C3.2800644,4.70305135 2.9460644,6.87405135 2.4810644,9.17605135 C2.2790644,9.57605135 2.0460644,9.87705135 1.7780644,10.0780514 C1.5440644,10.2440514 1.2770644,10.3440514 0.909064402,10.4100514 C-0.0558921194,9.81057309 -0.0408864484,8.88219502 0.027537814,7.94702645 L0.0510533889,7.63549395 C0.0625294307,7.48004379 0.0726296197,7.32539918 0.0770644023,7.17305135 C0.409064402,5.13905135 0.845064402,3.03505135 1.3450644,1.16705135 C1.5120644,0.800051355 1.6430644,0.499051355 1.7780644,0.299051355 Z"></path></clipPath><clipPath id="i15"><path d="M9.02920813,0.611902088 C9.41615185,-0.2795276 10.8871935,-0.0472914884 11.7190268,0.368625178 C12.2200268,1.30262518 12.9220268,3.60562518 11.8200268,4.43962518 C11.0520268,4.63962518 10.2510268,4.73962518 10.0850268,5.60762518 C10.3460268,5.67862518 10.7180268,5.86262518 11.1250268,6.06462518 C11.6470268,6.32262518 12.1930268,6.65662518 12.2870268,7.27662518 C11.4870268,8.34362518 9.31802685,7.77662518 9.68302685,9.77862518 C10.0850268,10.3126252 10.7860268,10.4136252 10.6190268,11.4806252 C10.2200268,11.8476252 9.35202685,12.3836252 9.04902685,12.8496252 C9.09180463,12.922403 9.58705154,12.8127733 10.136105,12.6850024 L10.4688046,12.607477 C10.8015824,12.530403 11.1250268,12.4586252 11.3530268,12.4276252 C12.7520268,12.2366252 13.8080268,12.1906252 14.1680268,12.1686252 C15.8030268,12.3676252 17.5230268,12.6946252 17.5230268,15.2996252 C16.9900268,17.9676252 14.1680268,18.2406252 12.2670268,18.3746252 C11.8320268,18.2746252 11.3980268,18.1756252 11.3980268,17.8746252 C12.0670268,17.5406252 13.8000268,16.4376252 13.1670268,15.2696252 C12.7110268,15.1996252 12.5250268,15.0026252 11.8590268,15.0516252 C10.6730268,15.1406252 8.90802685,15.5706252 8.11502685,15.7196252 C6.75002685,15.9846252 5.37802685,16.4546252 4.07802685,16.9886252 C3.47802685,17.2206252 2.91102685,17.4556252 2.31002685,17.6886252 C2.07602685,17.7576252 1.54202685,17.9226252 1.04202685,17.9896252 C0.440026849,18.0546252 -0.0609731506,17.9896252 0.00602684936,17.4556252 C0.372026849,17.3216252 0.707026849,16.9866252 1.04202685,16.8526252 C2.31002685,16.2866252 3.12002685,15.8496252 4.05302685,15.1136252 C4.28502685,14.9146252 4.66902685,14.6716252 4.90202685,14.4696252 C5.73602685,13.8696252 5.95302685,14.1046252 6.65402685,13.3386252 C6.70902685,13.2626252 7.10702685,12.6606252 7.21402685,12.5606252 C7.39402685,12.3986252 7.65202685,12.1086252 7.65202685,11.8516252 C7.75602685,11.6216252 7.84902685,10.7466252 7.81502685,10.3456252 C7.21402685,9.71362518 6.47802685,10.3126252 6.08002685,9.61262518 C5.99902685,8.57262518 6.61102685,7.68862518 7.14702685,6.96362518 C7.26402685,6.80362518 7.37802685,6.65262518 7.48102685,6.51062518 C7.65502685,6.05262518 7.43702685,5.27162518 7.64802685,4.30462518 C7.81502685,4.23962518 8.05902685,3.92062518 8.19302685,3.81962518 C8.49502685,3.68662518 8.71602685,3.73762518 9.01702685,3.57162518 C9.35202685,2.53662518 9.11702685,1.67062518 8.98502685,0.734625178 Z"></path></clipPath><clipPath id="i16"><path d="M3.37839069,0 C4.04539069,0.368 4.14639069,0.903 4.07839069,1.97 C3.67939069,2.938 3.31239069,3.706 3.11239069,4.54 C2.91139069,5.24 2.87639069,5.974 3.07639069,6.975 L3.11239069,7.009 C3.34439069,7.642 3.77839069,8.078 3.77839069,8.91 C3.57739069,9.114 3.34439069,9.213 3.11239069,9.244 C2.84339069,9.313 2.57739069,9.313 2.34439069,9.346 C1.31039069,9.078 0.675390688,8.512 0.340390688,7.778 C-0.193609312,6.64 -0.0256093124,5.108 0.340390688,3.706 C0.505390688,3.004 0.741390688,2.337 0.941390688,1.803 C1.57539069,0.603 1.80939069,0.167 3.11239069,0.034 C3.17839069,0 3.27839069,0 3.37839069,0 Z"></path></clipPath><clipPath id="i17"><path d="M8.407,0.0336192094 C8.852,-0.0783807906 9.506,0.113619209 10.046,0.255619209 L10.211,0.421619209 C11.547,1.42361921 11.983,1.72461921 11.515,3.82561921 C11.213,4.35961921 10.613,4.89261921 10.211,5.49361921 C10.013,5.82861921 9.845,6.16061921 9.845,6.56361921 C9.978,6.69561921 10.113,6.82861921 10.211,6.92961921 C10.848,7.39761921 11.547,7.36361921 12.516,7.29761921 C14.751,6.86261921 16.689,6.19461921 19.123,6.86261921 C20.359,8.53161921 19.076,10.9046192 17.51,10.9046192 C17.008,10.5046192 16.286,10.4016192 15.918,10.1666192 C14.985,10.0006192 12.615,10.0336192 11.948,10.6006192 C12.181,13.0346192 11.515,14.9716192 10.412,17.0416192 C10.411,17.1176192 10.385,17.1006192 10.245,17.2426192 L10.211,17.3086192 C9.21,18.6426192 8.478,19.2766192 6.975,19.4786192 C6.642,19.3426192 6.408,19.2096192 6.174,19.0766192 C5.407,18.5756192 5.339,17.8756192 4.971,16.7746192 C4.874,15.6066192 4.473,14.1716192 4.805,13.2366192 C5.706,13.0026192 5.873,13.2026192 6.174,14.4386192 L6.207,14.5076192 C6.742,15.4396192 7.209,15.8076192 8.079,14.9396192 C8.508,14.0056192 9.244,12.0686192 9.044,11.1006192 C8.478,10.6666192 7.276,10.6336192 6.174,10.8016192 C5.405,10.9146192 4.536,11.4346192 3.472,11.5556192 C3.304,11.6206192 2.137,11.6496192 2.005,11.6846192 C1.037,11.5506192 0.836,11.5336192 0.367,10.6996192 C0.166,10.3656192 0.034,10.0336192 0,9.73361921 C0.069,9.63161921 0.2,9.63161921 0.367,9.63161921 C2.558,9.54561921 2.71,9.59261921 2.989,9.41661921 C3.124,9.33261921 3.512,9.25961921 3.745,9.13961921 C4.131,8.94061921 4.565,8.63361921 6.174,8.09661921 C6.91,7.86361921 7.577,7.69561921 7.944,7.56361921 C7.411,5.66061921 7.911,5.19461921 8.846,3.82561921 C8.778,2.92561921 8.612,2.65761921 8.144,2.15561921 C7.622,1.51661921 6.19,1.72661921 6.388,1.39261921 C6.416875,1.34274421 6.45053125,1.22818171 6.48538281,1.09644538 L6.55561719,0.824152412 C6.59046875,0.690634834 6.624125,0.571619209 6.653,0.514619209 C6.87,0.0736192094 8.258,0.0716192094 8.407,0.0336192094 Z"></path></clipPath><clipPath id="i18"><path d="M0.348625024,4.20074169 C0.949625024,2.99874169 2.38262502,-0.337258307 3.95162502,0.0277416926 C3.98362502,0.0277416926 3.98362502,0.0617416926 4.01862502,0.0617416926 C4.61862502,1.16474169 4.21962502,3.23174169 3.95162502,4.76874169 C3.88662502,5.06974169 3.81762502,5.36774169 3.78462502,5.63374169 C3.51762502,6.80174169 3.41762502,8.40674169 2.24962502,8.74074169 C-0.227901292,7.90326801 -0.194089657,6.95932064 0.198622983,4.95409145 L0.271212719,4.58901637 C0.296359096,4.46352286 0.322309235,4.33416275 0.348625024,4.20074169 Z"></path></clipPath><clipPath id="i19"><path d="M0.424255563,2.01102632 C1.26725556,0.615026319 3.55225556,-1.26397368 3.94525556,1.19302632 C3.74525556,2.82702632 3.24425556,4.36102632 1.74125556,4.82702632 C1.24625556,4.65502632 0.879255563,4.50002632 0.615255563,4.32202632 L0.602255563,4.31302632 C0.594255563,4.30802632 0.581255563,4.29802632 0.567255563,4.28602632 C0.496255563,4.23602632 0.432255563,4.18302632 0.375255563,4.12602632 C0.317255563,4.07402632 0.267255563,4.01302632 0.221255563,3.95002632 L0.197255563,3.92002632 C0.186255563,3.90502632 0.175255563,3.88602632 0.166255563,3.86602632 C-0.0127444369,3.55202632 -0.0347444369,3.12202632 0.0412555631,2.46002632 C0.0742555631,2.36102632 0.309255563,2.22602632 0.375255563,2.09302632 C0.387255563,2.07202632 0.399255563,2.05202632 0.411255563,2.03202632 Z"></path></clipPath><clipPath id="i20"><path d="M2.243,0 C3.166,0 3.66,0.393 3.935,0.393 C4.279,0.393 4.132,0.116 4.309,0.116 C4.378,0.116 4.417,0.147 4.427,0.295 L4.603,2.154 C4.623,2.34 4.634,2.43 4.634,2.479 C4.634,2.547 4.603,2.576 4.556,2.576 C4.457,2.576 4.446,2.371 4.288,1.977 C3.856,0.887 3.324,0.235 2.232,0.235 C1.533,0.235 0.983,0.54 0.983,1.289 C0.983,2.9 4.977,2.006 4.977,4.672 C4.977,5.981 3.876,6.983 2.39,6.983 C1.416,6.983 0.954,6.531 0.571,6.531 C0.187,6.531 0.246,6.865 0.078,6.865 C0.029,6.865 0,6.846 0,6.776 L0,4.042 C0,3.924 0.039,3.895 0.099,3.895 C0.196,3.895 0.196,4.042 0.236,4.25 C0.473,5.498 0.964,6.747 2.4,6.747 C3.403,6.747 3.974,6.236 3.974,5.479 C3.974,3.49 0.039,4.465 0.039,2.025 C0.039,0.865 1.023,0 2.243,0 Z"></path></clipPath><clipPath id="i21"><path d="M6.944,0 C7.102,0 7.141,0.049 7.141,0.127 C7.141,0.403 6.295,0.019 6.295,0.807 L6.295,5.902 C6.295,6.688 7.141,6.306 7.141,6.581 C7.141,6.66 7.102,6.708 6.944,6.708 C6.443,6.708 5.97,6.688 5.576,6.688 C5.184,6.688 4.711,6.708 4.21,6.708 C4.053,6.708 4.014,6.66 4.014,6.581 C4.014,6.306 4.86,6.688 4.86,5.902 L4.86,3.306 L2.282,3.306 L2.282,5.902 C2.282,6.688 3.128,6.306 3.128,6.581 C3.128,6.66 3.088,6.708 2.931,6.708 C2.43,6.708 1.957,6.688 1.564,6.688 C1.17,6.688 0.699,6.708 0.198,6.708 C0.039,6.708 0,6.66 0,6.581 C0,6.306 0.846,6.688 0.846,5.902 L0.846,0.807 C0.846,0.019 0,0.403 0,0.127 C0,0.049 0.039,0 0.198,0 C0.699,0 1.17,0.019 1.564,0.019 C1.957,0.019 2.43,0 2.931,0 C3.088,0 3.128,0.049 3.128,0.127 C3.128,0.403 2.282,0.019 2.282,0.807 L2.282,3.07 L4.86,3.07 L4.86,0.807 C4.86,0.019 4.014,0.403 4.014,0.127 C4.014,0.049 4.053,0 4.21,0 C4.711,0 5.184,0.019 5.576,0.019 C5.97,0.019 6.443,0 6.944,0 Z"></path></clipPath><clipPath id="i22"><path d="M5.104,0 L5.596,1.878 C5.636,2.027 5.656,2.106 5.656,2.134 C5.656,2.185 5.626,2.212 5.557,2.212 C5.468,2.212 5.479,2.045 5.095,1.407 C4.632,0.64 3.993,0.235 2.813,0.235 L2.281,0.235 L2.281,3.07 L2.528,3.07 C3.217,3.07 3.717,2.558 3.757,1.849 C3.767,1.652 3.796,1.603 3.895,1.603 C3.953,1.603 3.993,1.652 3.993,1.742 L3.993,4.751 C3.993,4.839 3.953,4.889 3.895,4.889 C3.796,4.889 3.767,4.839 3.757,4.642 C3.717,3.767 3.217,3.306 2.528,3.306 L2.281,3.306 L2.281,5.785 C2.281,6.237 2.459,6.473 3.088,6.473 C4.622,6.473 5.449,5.38 5.754,4.408 C5.814,4.218 5.823,4.132 5.912,4.132 C5.979,4.132 6.009,4.181 6.009,4.24 C6.009,4.298 5.99,4.417 5.971,4.525 L5.537,6.708 C4.24,6.699 2.93,6.688 1.564,6.688 C1.17,6.688 0.698,6.708 0.198,6.708 C0.038,6.708 0,6.66 0,6.581 C0,6.306 0.844,6.688 0.844,5.902 L0.844,0.807 C0.844,0.019 0,0.403 0,0.127 C0,0.049 0.038,0 0.198,0 C0.698,0 1.17,0.019 1.564,0.019 C2.783,0.019 3.944,0.01 5.104,0 Z"></path></clipPath><clipPath id="i23"><path d="M7.065,0 C7.183,0 7.202,0.049 7.202,0.109 C7.202,0.275 6.946,0.177 6.671,0.295 C6.375,0.423 6.062,0.749 6.062,1.534 L6.062,6.601 C6.062,6.786 6.05,6.925 5.974,6.925 C5.884,6.925 5.814,6.807 5.726,6.688 L1.398,1.181 L1.378,1.181 L1.378,5.173 C1.378,5.96 1.692,6.284 1.989,6.413 C2.265,6.532 2.52,6.435 2.52,6.601 C2.52,6.659 2.499,6.708 2.382,6.708 C2.048,6.708 1.663,6.688 1.26,6.688 C0.857,6.688 0.474,6.708 0.139,6.708 C0.022,6.708 0,6.659 0,6.601 C0,6.435 0.258,6.532 0.533,6.413 C0.827,6.284 1.144,5.96 1.144,5.173 L1.144,0.874 C0.817,0.402 0.542,0.275 0.228,0.235 C0.07,0.216 0,0.216 0,0.109 C0,0.029 0.04,0 0.119,0 C0.454,0 0.817,0.019 1.183,0.019 L2.284,0.019 L5.806,4.445 L5.825,4.445 L5.825,1.534 C5.825,0.749 5.511,0.423 5.216,0.295 C4.939,0.177 4.683,0.275 4.683,0.109 C4.683,0.049 4.702,0 4.821,0 C5.156,0 5.539,0.019 5.943,0.019 C6.347,0.019 6.73,0 7.065,0 Z"></path></clipPath><clipPath id="i24"><path d="M5.272,0 C5.399,0 5.43,0.03 5.43,0.077 C5.43,0.127 5.361,0.235 5.282,0.374 L1.691,6.473 L2.499,6.473 C3.62,6.473 4.308,5.951 4.732,5.341 C5.163,4.722 5.155,4.132 5.321,4.132 C5.361,4.132 5.411,4.16 5.411,4.24 C5.411,4.298 5.381,4.446 5.341,4.634 L4.937,6.708 C4.15,6.699 3.345,6.688 2.537,6.688 C1.731,6.688 0.925,6.708 0.118,6.708 C0.039,6.708 0,6.66 0,6.62 C0,6.572 0.039,6.501 0.108,6.384 L3.778,0.235 L3.186,0.235 C2.096,0.235 1.396,0.64 0.925,1.407 C0.501,2.095 0.58,2.212 0.452,2.212 C0.394,2.212 0.374,2.185 0.374,2.134 C0.374,2.106 0.394,2.027 0.433,1.878 L0.925,0 C1.633,0 2.351,0.019 3.079,0.019 C3.808,0.019 4.524,0 5.272,0 Z"></path></clipPath><clipPath id="i25"><path d="M6.946,0 C7.103,0 7.143,0.049 7.143,0.127 C7.143,0.403 6.296,0.019 6.296,0.807 L6.296,5.902 C6.296,6.688 7.143,6.306 7.143,6.581 C7.143,6.66 7.103,6.708 6.946,6.708 C6.445,6.708 5.971,6.688 5.577,6.688 C5.185,6.688 4.713,6.708 4.21,6.708 C4.054,6.708 4.014,6.66 4.014,6.581 C4.014,6.306 4.86,6.688 4.86,5.902 L4.86,3.306 L2.284,3.306 L2.284,5.902 C2.284,6.688 3.128,6.306 3.128,6.581 C3.128,6.66 3.09,6.708 2.932,6.708 C2.43,6.708 1.958,6.688 1.566,6.688 C1.171,6.688 0.699,6.708 0.198,6.708 C0.039,6.708 0,6.66 0,6.581 C0,6.306 0.848,6.688 0.848,5.902 L0.848,0.807 C0.848,0.019 0,0.403 0,0.127 C0,0.049 0.039,0 0.198,0 C0.699,0 1.171,0.019 1.566,0.019 C1.958,0.019 2.43,0 2.932,0 C3.09,0 3.128,0.049 3.128,0.127 C3.128,0.403 2.284,0.019 2.284,0.807 L2.284,3.07 L4.86,3.07 L4.86,0.807 C4.86,0.019 4.014,0.403 4.014,0.127 C4.014,0.049 4.054,0 4.21,0 C4.713,0 5.185,0.019 5.577,0.019 C5.971,0.019 6.445,0 6.946,0 Z"></path></clipPath><clipPath id="i26"><path d="M5.106,0 L5.598,1.878 C5.636,2.027 5.657,2.106 5.657,2.134 C5.657,2.185 5.627,2.212 5.559,2.212 C5.468,2.212 5.479,2.045 5.096,1.407 C4.633,0.64 3.993,0.235 2.813,0.235 L2.282,0.235 L2.282,3.07 L2.528,3.07 C3.217,3.07 3.719,2.558 3.758,1.849 C3.768,1.652 3.797,1.603 3.895,1.603 C3.955,1.603 3.993,1.652 3.993,1.742 L3.993,4.751 C3.993,4.839 3.955,4.889 3.895,4.889 C3.797,4.889 3.768,4.839 3.758,4.642 C3.719,3.767 3.217,3.306 2.528,3.306 L2.282,3.306 L2.282,5.785 C2.282,6.237 2.459,6.473 3.089,6.473 C4.623,6.473 5.45,5.38 5.755,4.408 C5.814,4.218 5.825,4.132 5.912,4.132 C5.981,4.132 6.01,4.181 6.01,4.24 C6.01,4.298 5.992,4.417 5.971,4.525 L5.538,6.708 C4.24,6.699 2.932,6.688 1.564,6.688 C1.172,6.688 0.7,6.708 0.198,6.708 C0.039,6.708 0,6.66 0,6.581 C0,6.306 0.846,6.688 0.846,5.902 L0.846,0.807 C0.846,0.019 0,0.403 0,0.127 C0,0.049 0.039,0 0.198,0 C0.7,0 1.172,0.019 1.564,0.019 C2.784,0.019 3.946,0.01 5.106,0 Z"></path></clipPath><clipPath id="i27"><path d="M7.063,0 C7.181,0 7.2,0.049 7.2,0.109 C7.2,0.275 6.944,0.177 6.67,0.295 C6.375,0.423 6.059,0.749 6.059,1.534 L6.059,6.601 C6.059,6.786 6.05,6.925 5.972,6.925 C5.882,6.925 5.814,6.807 5.726,6.688 L1.397,1.181 L1.377,1.181 L1.377,5.173 C1.377,5.96 1.692,6.284 1.986,6.413 C2.263,6.532 2.518,6.435 2.518,6.601 C2.518,6.659 2.499,6.708 2.382,6.708 C2.046,6.708 1.663,6.688 1.259,6.688 C0.856,6.688 0.472,6.708 0.139,6.708 C0.021,6.708 0,6.659 0,6.601 C0,6.435 0.256,6.532 0.531,6.413 C0.827,6.284 1.141,5.96 1.141,5.173 L1.141,0.874 C0.817,0.402 0.54,0.275 0.226,0.235 C0.068,0.216 0,0.216 0,0.109 C0,0.029 0.04,0 0.119,0 C0.452,0 0.817,0.019 1.181,0.019 L2.282,0.019 L5.804,4.445 L5.822,4.445 L5.822,1.534 C5.822,0.749 5.509,0.423 5.213,0.295 C4.939,0.177 4.683,0.275 4.683,0.109 C4.683,0.049 4.702,0 4.82,0 C5.154,0 5.538,0.019 5.941,0.019 C6.345,0.019 6.73,0 7.063,0 Z"></path></clipPath><clipPath id="i28"><path d="M6.669,0 C6.787,0 6.806,0.048 6.806,0.108 C6.806,0.196 6.658,0.205 6.512,0.255 C6.06,0.402 5.744,0.885 5.744,1.731 L5.744,4.651 C5.744,6.118 4.74,6.845 3.364,6.845 C1.83,6.845 0.846,6.137 0.846,5.116 L0.846,0.806 C0.846,0.018 0,0.402 0,0.127 C0,0.048 0.039,0 0.197,0 C0.698,0 1.17,0.018 1.563,0.018 C1.957,0.018 2.43,0 2.931,0 C3.088,0 3.128,0.048 3.128,0.127 C3.128,0.402 2.283,0.018 2.283,0.806 L2.283,5.116 C2.283,5.921 2.95,6.551 3.766,6.551 C4.8,6.551 5.508,5.883 5.508,4.711 L5.508,1.731 C5.508,0.885 5.193,0.402 4.74,0.255 C4.594,0.205 4.446,0.196 4.446,0.108 C4.446,0.048 4.465,0 4.583,0 C4.84,0 5.223,0.018 5.627,0.018 C6.029,0.018 6.414,0 6.669,0 Z"></path></clipPath><clipPath id="i29"><path d="M7.064,0 C7.182,0 7.2,0.049 7.2,0.109 C7.2,0.275 6.945,0.177 6.67,0.295 C6.374,0.423 6.061,0.749 6.061,1.534 L6.061,6.601 C6.061,6.786 6.05,6.925 5.972,6.925 C5.883,6.925 5.814,6.807 5.726,6.688 L1.397,1.181 L1.377,1.181 L1.377,5.173 C1.377,5.96 1.692,6.284 1.988,6.413 C2.262,6.532 2.52,6.435 2.52,6.601 C2.52,6.659 2.498,6.708 2.381,6.708 C2.047,6.708 1.662,6.688 1.258,6.688 C0.856,6.688 0.473,6.708 0.138,6.708 C0.02,6.708 0,6.659 0,6.601 C0,6.435 0.256,6.532 0.531,6.413 C0.826,6.284 1.143,5.96 1.143,5.173 L1.143,0.874 C0.816,0.402 0.541,0.275 0.227,0.235 C0.068,0.216 0,0.216 0,0.109 C0,0.029 0.039,0 0.119,0 C0.453,0 0.816,0.019 1.182,0.019 L2.283,0.019 L5.804,4.445 L5.823,4.445 L5.823,1.534 C5.823,0.749 5.509,0.423 5.215,0.295 C4.939,0.177 4.683,0.275 4.683,0.109 C4.683,0.049 4.702,0 4.82,0 C5.155,0 5.539,0.019 5.941,0.019 C6.345,0.019 6.729,0 7.064,0 Z"></path></clipPath><clipPath id="i30"><path d="M2.931,0 C3.088,0 3.128,0.049 3.128,0.127 C3.128,0.403 2.283,0.019 2.283,0.807 L2.283,5.902 C2.283,6.688 3.128,6.306 3.128,6.581 C3.128,6.66 3.088,6.708 2.931,6.708 C2.43,6.708 1.957,6.688 1.565,6.688 C1.172,6.688 0.699,6.708 0.198,6.708 C0.039,6.708 0,6.66 0,6.581 C0,6.306 0.847,6.688 0.847,5.902 L0.847,0.807 C0.847,0.019 0,0.403 0,0.127 C0,0.049 0.039,0 0.198,0 C0.699,0 1.172,0.019 1.565,0.019 C1.957,0.019 2.43,0 2.931,0 Z"></path></clipPath><clipPath id="i31"><path d="M6.748,0 C6.943,0 7.061,0.038 7.061,0.127 C7.061,0.413 6.304,0.01 5.723,1.426 L3.591,6.62 C3.54,6.738 3.492,6.846 3.432,6.846 C3.374,6.846 3.325,6.738 3.275,6.62 L0.905,0.874 C0.56,0.049 0,0.295 0,0.098 C0,0.049 0.05,0 0.137,0 C0.639,0 1.082,0.019 1.534,0.019 C1.977,0.019 2.428,0 2.873,0 C3.049,0 3.108,0.038 3.108,0.109 C3.108,0.315 2.419,0.059 2.419,0.581 C2.419,0.718 2.458,0.847 2.499,0.944 L4.032,4.878 L5.321,1.72 C5.399,1.526 5.449,1.288 5.449,1.072 C5.449,0.127 4.602,0.354 4.602,0.109 C4.602,0.059 4.662,0 4.77,0 C5.105,0 5.428,0.019 5.763,0.019 C6.087,0.019 6.413,0 6.748,0 Z"></path></clipPath><clipPath id="i32"><path d="M5.105,0 L5.597,1.878 C5.637,2.027 5.657,2.106 5.657,2.134 C5.657,2.185 5.625,2.212 5.558,2.212 C5.469,2.212 5.48,2.045 5.096,1.407 C4.633,0.64 3.993,0.235 2.814,0.235 L2.282,0.235 L2.282,3.07 L2.529,3.07 C3.216,3.07 3.718,2.558 3.758,1.849 C3.768,1.652 3.797,1.603 3.896,1.603 C3.953,1.603 3.993,1.652 3.993,1.742 L3.993,4.751 C3.993,4.839 3.953,4.889 3.896,4.889 C3.797,4.889 3.768,4.839 3.758,4.642 C3.718,3.767 3.216,3.306 2.529,3.306 L2.282,3.306 L2.282,5.785 C2.282,6.237 2.459,6.473 3.089,6.473 C4.623,6.473 5.45,5.38 5.755,4.408 C5.815,4.218 5.823,4.132 5.912,4.132 C5.98,4.132 6.01,4.181 6.01,4.24 C6.01,4.298 5.99,4.417 5.971,4.525 L5.538,6.708 C4.241,6.699 2.932,6.688 1.564,6.688 C1.17,6.688 0.699,6.708 0.198,6.708 C0.039,6.708 0,6.66 0,6.581 C0,6.306 0.845,6.688 0.845,5.902 L0.845,0.807 C0.845,0.019 0,0.403 0,0.127 C0,0.049 0.039,0 0.198,0 C0.699,0 1.17,0.019 1.564,0.019 C2.783,0.019 3.946,0.01 5.105,0 Z"></path></clipPath><clipPath id="i33"><path d="M3.129,0 C4.81,0 5.706,0.749 5.706,1.751 C5.706,2.577 5.193,3.266 3.168,3.481 L3.168,3.501 C4.22,3.501 4.791,3.757 5.174,4.493 L5.912,5.921 C6.314,6.698 6.965,6.325 6.965,6.6 C6.965,6.659 6.953,6.708 6.865,6.708 C6.512,6.708 6.158,6.687 5.804,6.687 L4.742,6.687 L3.551,4.2 C3.315,3.708 2.852,3.54 2.283,3.54 L2.283,5.901 C2.283,6.687 3.129,6.305 3.129,6.581 C3.129,6.659 3.089,6.708 2.931,6.708 C2.429,6.708 1.957,6.687 1.564,6.687 C1.171,6.687 0.699,6.708 0.196,6.708 C0.039,6.708 0,6.659 0,6.581 C0,6.305 0.847,6.687 0.847,5.901 L0.847,0.806 C0.847,0.018 0,0.402 0,0.127 C0,0.049 0.039,0 0.196,0 C0.699,0 1.171,0.018 1.564,0.018 C2.056,0.018 2.479,0 3.129,0 Z M2.902,0.234 L2.283,0.234 L2.283,3.364 L2.666,3.364 C3.777,3.364 4.269,2.812 4.269,1.77 C4.269,0.688 3.738,0.234 2.902,0.234 Z"></path></clipPath><clipPath id="i34"><path d="M2.246,0 C3.168,0 3.66,0.393 3.936,0.393 C4.281,0.393 4.133,0.116 4.311,0.116 C4.379,0.116 4.418,0.147 4.426,0.295 L4.604,2.154 C4.625,2.34 4.635,2.43 4.635,2.479 C4.635,2.547 4.604,2.576 4.557,2.576 C4.457,2.576 4.447,2.371 4.291,1.977 C3.857,0.887 3.326,0.235 2.234,0.235 C1.536,0.235 0.985,0.54 0.985,1.289 C0.985,2.9 4.979,2.006 4.979,4.672 C4.979,5.981 3.878,6.983 2.392,6.983 C1.418,6.983 0.955,6.531 0.572,6.531 C0.189,6.531 0.246,6.865 0.08,6.865 C0.031,6.865 0,6.846 0,6.776 L0,4.042 C0,3.924 0.041,3.895 0.1,3.895 C0.199,3.895 0.199,4.042 0.238,4.25 C0.475,5.498 0.966,6.747 2.4,6.747 C3.405,6.747 3.975,6.236 3.975,5.479 C3.975,3.49 0.041,4.465 0.041,2.025 C0.041,0.865 1.023,0 2.246,0 Z"></path></clipPath><clipPath id="i35"><path d="M2.933,0 C3.089,0 3.128,0.049 3.128,0.127 C3.128,0.403 2.284,0.019 2.284,0.807 L2.284,5.902 C2.284,6.688 3.128,6.306 3.128,6.581 C3.128,6.66 3.089,6.708 2.933,6.708 C2.43,6.708 1.959,6.688 1.566,6.688 C1.172,6.688 0.7,6.708 0.198,6.708 C0.04,6.708 0,6.66 0,6.581 C0,6.306 0.848,6.688 0.848,5.902 L0.848,0.807 C0.848,0.019 0,0.403 0,0.127 C0,0.049 0.04,0 0.198,0 C0.7,0 1.172,0.019 1.566,0.019 C1.959,0.019 2.43,0 2.933,0 Z"></path></clipPath><clipPath id="i36"><path d="M5.676,0 C5.725,0 5.755,0.04 5.785,0.187 L6.108,1.987 C6.139,2.145 6.159,2.303 6.159,2.34 C6.159,2.411 6.119,2.441 6.068,2.441 C5.843,2.441 5.744,0.924 3.797,0.393 L3.797,5.843 C3.797,6.473 4.102,6.611 4.585,6.611 C4.702,6.611 4.761,6.639 4.761,6.739 C4.761,6.817 4.713,6.846 4.604,6.846 C4.043,6.846 3.543,6.826 3.08,6.826 C2.618,6.826 2.116,6.846 1.554,6.846 C1.446,6.846 1.397,6.817 1.397,6.739 C1.397,6.639 1.456,6.611 1.574,6.611 C2.056,6.611 2.361,6.473 2.361,5.843 L2.361,0.393 C0.414,0.924 0.314,2.441 0.09,2.441 C0.04,2.441 0,2.411 0,2.34 C0,2.303 0.02,2.145 0.05,1.987 L0.375,0.187 C0.404,0.04 0.433,0 0.483,0 C0.531,0 0.571,0.03 0.619,0.07 C0.67,0.099 0.738,0.157 0.877,0.157 L5.284,0.157 C5.421,0.157 5.489,0.099 5.539,0.07 C5.588,0.03 5.627,0 5.676,0 Z"></path></clipPath><clipPath id="i37"><path d="M6.443,0 C6.512,0 6.551,0.038 6.551,0.098 C6.551,0.295 6.09,0.03 5.154,1.593 L3.994,3.532 L3.994,5.902 C3.994,6.688 4.84,6.306 4.84,6.581 C4.84,6.659 4.8,6.708 4.643,6.708 C4.141,6.708 3.67,6.688 3.275,6.688 C2.883,6.688 2.41,6.708 1.908,6.708 C1.752,6.708 1.711,6.659 1.711,6.581 C1.711,6.306 2.559,6.688 2.559,5.902 L2.559,3.718 L0.975,0.835 C0.552,0.059 0,0.315 0,0.109 C0,0.038 0.06,0 0.168,0 C0.65,0 1.102,0.019 1.564,0.019 C2.027,0.019 2.479,0 2.942,0 C3.088,0 3.158,0.03 3.158,0.098 C3.158,0.304 2.538,0.07 2.538,0.618 C2.538,0.786 2.598,0.944 2.715,1.17 L3.875,3.344 L4.643,1.986 C4.898,1.534 4.997,1.093 4.997,0.825 C4.997,0.168 4.387,0.265 4.387,0.109 C4.387,0.049 4.445,0 4.584,0 C4.898,0 5.135,0.019 5.528,0.019 C5.834,0.019 6.148,0 6.443,0 Z"></path></clipPath><clipPath id="i38"><path d="M0.154020616,0.00521776038 C0.512020616,0.0602177604 0.844020616,0.12721776 1.12402062,0.17121776 C1.40302062,0.21521776 1.74002062,0.25321776 2.09802062,0.30821776 C2.20902062,0.32621776 2.23102062,0.36521776 2.22302062,0.42121776 C2.19202062,0.61721776 1.63502062,0.25021776 1.54702062,0.80921776 L1.06702062,3.86921776 C0.978020616,4.44221776 1.38302062,4.96421776 1.96302062,5.05421776 C2.69602062,5.17021776 3.27302062,4.77321776 3.40402062,3.94221776 L3.73502062,1.82521776 C3.83002062,1.22421776 3.66002062,0.84621776 3.35302062,0.69121776 C3.25502062,0.64021776 3.15102062,0.61721776 3.16102062,0.55321776 C3.16802062,0.51221776 3.18702062,0.47921776 3.27102062,0.49221776 C3.45302062,0.52121776 3.72302062,0.57821776 4.01002062,0.62221776 C4.29702062,0.66721776 4.57002062,0.69621776 4.75202062,0.72421776 C4.83602062,0.73821776 4.84402062,0.77421776 4.83802062,0.81621776 C4.82802062,0.87921776 4.72302062,0.87021776 4.61202062,0.88821776 C4.27402062,0.94321776 3.99702062,1.25021776 3.90302062,1.85121776 L3.57802062,3.92621776 C3.41602062,4.96721776 2.62102062,5.37321776 1.64202062,5.21921776 C0.554020616,5.04921776 -0.0669793838,4.43621776 0.0470206162,3.71021776 L0.526020616,0.64921776 C0.613020616,0.0912177604 -0.0289793838,0.26921776 0.00102061619,0.0732177604 C0.0100206162,0.0172177604 0.0430206162,-0.0127822396 0.154020616,0.00521776038 Z"></path></clipPath><clipPath id="i39"><path d="M2.00582098,0.0114857513 C2.22482098,0.109485751 2.45882098,0.228485751 2.69782098,0.334485751 L3.42282098,0.654485751 L4.45282098,4.58848575 L4.46482098,4.59348575 L5.31182098,2.67948575 C5.54082098,2.16148575 5.42782098,1.85648575 5.26982098,1.68648575 C5.12282098,1.52948575 4.92782098,1.51948575 4.97482098,1.40948575 C4.99282098,1.37148575 5.01882098,1.34448575 5.09782098,1.37948575 C5.31782098,1.47548575 5.56382098,1.60048575 5.82982098,1.71748575 C6.09482098,1.83448575 6.35182098,1.93348575 6.57182098,2.03048575 C6.64982098,2.06448575 6.64782098,2.10248575 6.63182098,2.14048575 C6.58382098,2.25148575 6.44282098,2.11248575 6.22782098,2.10948575 C5.99682098,2.10848575 5.69482098,2.23048575 5.46682098,2.74748575 L3.99482098,6.07948575 C3.94082098,6.20248575 3.89382098,6.29048575 3.84282098,6.26748575 C3.78382098,6.24148575 3.77282098,6.14448575 3.74982098,6.04048575 L2.50382098,1.16048575 L2.48982098,1.15448575 L1.32982098,3.78148575 C1.10082098,4.29948575 1.21482098,4.60348575 1.37082098,4.77348575 C1.51682098,4.93048575 1.71482098,4.94048575 1.66582098,5.05148575 C1.64782098,5.08948575 1.62082098,5.11648575 1.54482098,5.08148575 C1.32382098,4.98448575 1.07782098,4.86048575 0.811820984,4.74348575 C0.546820984,4.62648575 0.288820984,4.52748575 0.0688209842,4.42948575 C-0.00817901579,4.39548575 -0.00817901579,4.35748575 0.00982098421,4.31948575 C0.0588209842,4.20848575 0.197820984,4.34748575 0.413820984,4.35048575 C0.643820984,4.35148575 0.945820984,4.22948575 1.17482098,3.71248575 L2.42382098,0.885485751 C2.34782098,0.480485751 2.20282098,0.316485751 2.00782098,0.199485751 C1.90982098,0.140485751 1.86482098,0.120485751 1.89582098,0.0494857513 C1.91982098,-0.00251424869 1.95282098,-0.0105142487 2.00582098,0.0114857513 Z"></path></clipPath><clipPath id="i40"><path d="M2.8879218,0.0460133617 C3.1809218,0.255013362 3.4489218,0.464013362 3.6789218,0.629013362 C3.9089218,0.794013362 4.1929218,0.980013362 4.4869218,1.19001336 C4.5779218,1.25501336 4.5809218,1.30101336 4.5479218,1.34701336 C4.4329218,1.50801336 4.0989218,0.930013362 3.7689218,1.39001336 L1.6379218,4.36901336 C1.3079218,4.83001336 1.9629218,4.95801336 1.8489218,5.12001336 C1.8159218,5.16501336 1.7719218,5.17801336 1.6799218,5.11201336 C1.3859218,4.90201336 1.1179218,4.69301336 0.887921796,4.52901336 C0.658921796,4.36401336 0.373921796,4.17801336 0.0809217964,3.96801336 C-0.0100782036,3.90201336 -0.0140782036,3.85701336 0.0189217964,3.81101336 C0.133921796,3.65001336 0.468921796,4.22801336 0.797921796,3.76801336 L2.9299218,0.789013362 C3.2589218,0.329013362 2.6039218,0.199013362 2.7199218,0.0380133617 C2.7509218,-0.0079866383 2.7949218,-0.0199866383 2.8879218,0.0460133617 Z"></path></clipPath><clipPath id="i41"><path d="M1.95486989,0.0388362279 C2.20286989,0.300836228 2.41186989,0.540836228 2.63486989,0.777836228 L3.30686989,1.46583623 C3.39386989,1.55783623 3.40286989,1.60883623 3.36686989,1.64283623 C3.25986989,1.74483623 3.05286989,1.25883623 2.77986989,1.51683623 C2.70886989,1.58483623 2.66086989,1.66883623 2.62886989,1.73783623 L1.33486989,4.48483623 L3.61986989,3.59583623 C3.76186989,3.53883623 3.90786989,3.44883623 4.02086989,3.34183623 C4.51486989,2.87383623 3.97786989,2.54483623 4.10686989,2.42283623 C4.13286989,2.39883623 4.19086989,2.40083623 4.24586989,2.45683623 C4.41186989,2.63083623 4.55986989,2.81083623 4.72586989,2.98583623 C4.88686989,3.15483623 5.05786989,3.31483623 5.22386989,3.48883623 C5.31986989,3.59083623 5.35886989,3.67283623 5.31186989,3.71583623 C5.16386989,3.85783623 4.99986989,3.26283623 3.97286989,3.65983623 L0.206869891,5.11483623 C0.120869891,5.14783623 0.0408698908,5.17583623 0.0118698908,5.14483623 C-0.0181301092,5.11383623 0.0138698908,5.03383623 0.0508698908,4.94983623 L1.87686989,0.871836228 C2.13886989,0.283836228 1.73186989,0.112836228 1.83586989,0.0158362279 C1.86086989,-0.00816377207 1.90986989,-0.00816377207 1.95486989,0.0388362279 Z"></path></clipPath><clipPath id="i42"><path d="M4.17876401,0.0892635804 C4.36276401,0.39826358 4.52476401,0.69826358 4.66976401,0.94026358 C5.11876401,1.69426358 5.55276401,2.40726358 5.98776401,3.11926358 L5.00976401,4.11626358 C4.93176401,4.19426358 4.89076401,4.23526358 4.87276401,4.24526358 C4.84276401,4.26426358 4.81376401,4.25626358 4.78776401,4.21326358 C4.75576401,4.16026358 4.86176401,4.10426358 5.11476401,3.63126358 C5.41876401,3.06326358 5.43176401,2.52026358 4.99676401,1.79126358 L4.80076401,1.46326358 L3.05276401,2.50726358 L3.14276401,2.65926358 C3.39676401,3.08426358 3.89776401,3.20526358 4.34976401,2.96926358 C4.47476401,2.90226358 4.51576401,2.90226358 4.55276401,2.96326358 C4.57376401,2.99926358 4.55776401,3.04126358 4.50376401,3.07526358 L2.64476401,4.18426358 C2.58976401,4.21626358 2.54476401,4.21026358 2.52376401,4.17426358 C2.48676401,4.11426358 2.50676401,4.07726358 2.62476401,3.99826358 C3.14976401,3.65126358 3.25176401,3.17126358 2.99776401,2.74626358 L2.90576401,2.59426358 L1.37676401,3.50826358 C1.09776401,3.67526358 1.01676401,3.87126358 1.24876401,4.26026358 C1.81476401,5.20726358 2.79276401,5.31526358 3.50576401,5.14426358 C3.64376401,5.11226358 3.70076401,5.08426358 3.73376401,5.13926358 C3.75976401,5.18226358 3.73976401,5.21826358 3.70276401,5.24026358 C3.66776401,5.26226358 3.58776401,5.29326358 3.51376401,5.32126358 L2.00576401,5.85926358 C1.53276401,5.05326358 1.05676401,4.24226358 0.552764006,3.39826358 C0.407764006,3.15526358 0.222764006,2.87126358 0.036764006,2.56126358 C-0.020235994,2.46426358 -0.00523599403,2.42126358 0.042764006,2.39326358 C0.212764006,2.29126358 0.288764006,2.95426358 0.773764006,2.66426358 L3.91976401,0.78726358 C4.40576401,0.49626358 3.85776401,0.11626358 4.02676401,0.0152635804 C4.07576401,-0.0137364196 4.12076401,-0.00773641962 4.17876401,0.0892635804 Z"></path></clipPath><clipPath id="i43"><path d="M4.63995015,0.114570399 C4.74195015,0.460570399 4.82495015,0.789570399 4.90495015,1.0605704 C5.00595015,1.4005704 5.10495015,1.6875704 5.23595015,2.1355704 C5.57795015,3.2965704 5.24595015,4.0645704 4.55295015,4.2695704 C3.98295015,4.4375704 3.40395015,4.2245704 2.84395015,2.8715704 L2.82995015,2.8755704 C3.04395015,3.6005704 2.98295015,4.0465704 2.55295015,4.4615704 L1.71895015,5.2595704 C1.26495015,5.6955704 1.65495015,6.0675704 1.46495015,6.1235704 C1.42395015,6.1345704 1.38895015,6.1385704 1.37095015,6.0785704 C1.29895015,5.8335704 1.23995015,5.5855704 1.16795015,5.3405704 L0.951950153,4.6085704 L2.42595015,3.2815704 C2.71695015,3.0185704 2.73795015,2.6665704 2.62295015,2.2725704 L0.993950153,2.7535704 C0.450950153,2.9125704 0.888950153,3.4185704 0.698950153,3.4735704 C0.643950153,3.4905704 0.601950153,3.4725704 0.569950153,3.3645704 C0.468950153,3.0175704 0.386950153,2.6885704 0.305950153,2.4185704 C0.225950153,2.1465704 0.116950153,1.8245704 0.013950153,1.4785704 C-0.018049847,1.3705704 0.00795015303,1.3335704 0.061950153,1.3165704 C0.251950153,1.2605704 0.159950153,1.9225704 0.702950153,1.7615704 L4.21695015,0.725570399 C4.75995015,0.566570399 4.32195015,0.0605703989 4.51295015,0.0055703989 C4.56595015,-0.0114296011 4.60895015,0.0065703989 4.63995015,0.114570399 Z M4.90195015,1.5995704 L2.74395015,2.2365704 L2.82195015,2.5015704 C3.04895015,3.2675704 3.52895015,3.4945704 4.24795015,3.2825704 C4.99395015,3.0625704 5.19695015,2.6045704 5.02695015,2.0275704 L4.90195015,1.5995704 Z"></path></clipPath><clipPath id="i44"><path d="M5.01261527,1.5136874 C5.04561527,2.1776874 4.77961527,2.5446874 4.78961527,2.7416874 C4.80161527,2.9886874 4.99461527,2.8736874 5.00061527,3.0006874 C5.00261527,3.0506874 4.98261527,3.0796874 4.87761527,3.0926874 L3.54861527,3.2836874 C3.41461527,3.3046874 3.35161527,3.3146874 3.31661527,3.3156874 C3.26561527,3.3186874 3.24461527,3.2986874 3.24261527,3.2636874 C3.23961527,3.1916874 3.38661527,3.1786874 3.66461527,3.0516874 C4.43361527,2.7026874 4.88161527,2.2996874 4.84361527,1.5146874 C4.81861527,1.0136874 4.58061527,0.628687397 4.04361527,0.653687397 C2.88561527,0.710687397 3.66661527,3.5466874 1.75261527,3.6396874 C0.812615269,3.6856874 0.0546152693,2.9286874 0.00261526932,1.8616874 C-0.0313847307,1.1626874 0.277615269,0.814687397 0.263615269,0.539687397 C0.251615269,0.264687397 0.0126152693,0.317687397 0.00761526932,0.197687397 C0.00661526932,0.162687397 0.0186152693,0.141687397 0.0686152693,0.138687397 L2.03161527,0.043687397 C2.11761527,0.039687397 2.13861527,0.065687397 2.14061527,0.108687397 C2.14461527,0.179687397 2.03961527,0.184687397 1.89061527,0.220687397 C1.00261527,0.433687397 0.123615269,0.829687397 0.172615269,1.8606874 C0.207615269,2.5816874 0.594615269,2.9736874 1.13861527,2.9466874 C2.56461527,2.8786874 1.72861527,0.086687397 3.48061527,0.00168739701 C4.31461527,-0.038312603 4.97061527,0.637687397 5.01261527,1.5136874 Z"></path></clipPath><clipPath id="i45"><path d="M0.375764992,0.00144050307 C0.570764992,0.0274405031 0.217764992,0.594440503 0.777764992,0.669440503 L4.40876499,1.1564405 C4.96976499,1.2314405 4.77776499,0.593440503 4.97276499,0.618440503 C5.02976499,0.626440503 5.06076499,0.659440503 5.04576499,0.770440503 C4.99776499,1.1284405 4.93776499,1.4634405 4.90076499,1.7434405 C4.86276499,2.0234405 4.83276499,2.3624405 4.78376499,2.7194405 C4.76776499,2.8324405 4.72976499,2.8554405 4.67476499,2.8474405 C4.47676499,2.8214405 4.83276499,2.2554405 4.27076499,2.1794405 L0.640764992,1.6924405 C0.0797649924,1.6164405 0.271764992,2.2574405 0.0757649924,2.2304405 C0.0197649924,2.2224405 -0.0112350076,2.1894405 0.00376499236,2.0774405 C0.0517649924,1.7194405 0.110764992,1.3854405 0.148764992,1.1054405 C0.185764992,0.825440503 0.217764992,0.486440503 0.265764992,0.129440503 C0.279764992,0.0164405031 0.318764992,-0.00655949693 0.375764992,0.00144050307 Z"></path></clipPath><clipPath id="i46"><path d="M0.821769939,0.0059795515 C0.888769939,0.0269795515 0.895769939,0.0739795515 0.867769939,0.154979552 C0.757769939,0.482979552 0.780769939,0.721979552 1.21076994,0.866979552 L4.92476994,2.11597955 C5.00976994,0.665979552 3.99876994,0.252979552 4.05076994,0.0979795515 C4.06276994,0.0639795515 4.09176994,0.0449795515 4.13876994,0.0599795515 C4.16476994,0.0699795515 4.26776994,0.118979552 4.36776994,0.175979552 L5.52176994,0.807979552 C5.61476994,0.861979552 5.63476994,0.890979552 5.62276994,0.925979552 C5.61176994,0.958979552 5.58276994,0.977979552 5.54476994,1.00397955 C5.51376994,1.02997955 5.45676994,1.06297955 5.42576994,1.15697955 L4.41576994,4.15997955 C4.38476994,4.25397955 4.40776994,4.31497955 4.41776994,4.35497955 C4.43376994,4.39797955 4.44576994,4.43097955 4.43376994,4.46497955 C4.42176994,4.49797955 4.38876994,4.50997955 4.28076994,4.49597955 L2.98076994,4.30397955 C2.86476994,4.28897955 2.75376994,4.26497955 2.72776994,4.25697955 C2.67976994,4.24097955 2.66976994,4.20697955 2.68076994,4.17397955 C2.73276994,4.01897955 3.78676994,4.30097955 4.59576994,3.09497955 L0.881769939,1.84497955 C0.452769939,1.70097955 0.288769939,1.87797955 0.179769939,2.20597955 C0.152769939,2.28697955 0.117769939,2.31997955 0.0507699395,2.29697955 C-0.00223006051,2.27897955 -0.0122300605,2.23897955 0.0137699395,2.16597955 C0.142769939,1.78297955 0.270769939,1.44597955 0.376769939,1.13097955 C0.482769939,0.814979552 0.583769939,0.469979552 0.711769939,0.0879795515 C0.736769939,0.0129795515 0.767769939,-0.0130204485 0.821769939,0.0059795515 Z"></path></clipPath><clipPath id="i47"><path d="M1.23277856,0.0162237638 C1.40077856,0.121223764 0.84477856,0.491223764 1.32377856,0.791223764 L2.65577856,1.62122376 L5.01777856,1.75122376 C5.65277856,1.78922376 5.70477856,1.35422376 5.83177856,1.43322376 C5.87477856,1.46022376 5.87477856,1.51022376 5.83377856,1.57722376 C5.65177856,1.87122376 5.46677856,2.13922376 5.29077856,2.42122376 L4.77877856,3.26922376 C4.72377856,3.35922376 4.67977856,3.38922376 4.63677856,3.36422376 C4.51177856,3.28522376 4.89077856,2.99722376 4.55477856,2.78822376 C4.45277856,2.72322376 4.33377856,2.70022376 4.15177856,2.68622376 L2.38277856,2.56722376 L2.91977856,3.55122376 C3.09977856,3.87922376 3.33177856,4.10822376 3.49377856,4.21022376 C3.89677856,4.46022376 4.06877856,4.05022376 4.16377856,4.11022376 C4.19877856,4.13222376 4.20677856,4.18822376 4.15377856,4.27122376 C4.03477856,4.46322376 3.93377856,4.60022376 3.78277856,4.84022376 C3.66777856,5.02622376 3.56077856,5.22522376 3.44677856,5.40522376 C3.42177856,5.44822376 3.38277856,5.45722376 3.34677856,5.43422376 C3.22677856,5.35922376 3.56477856,5.17822376 2.96577856,4.01322376 L2.22477856,2.56822376 L0.77877856,1.66722376 C0.29877856,1.36822376 0.21077856,2.03022376 0.0427785599,1.92422376 C-0.00622144011,1.89422376 -0.0202214401,1.85222376 0.0387785599,1.75622376 C0.23077856,1.45022376 0.42177856,1.17022376 0.57077856,0.929223764 C0.72077856,0.689223764 0.88877856,0.393223764 1.07977856,0.0882237638 C1.13877856,-0.00877623624 1.18477856,-0.0137762362 1.23277856,0.0162237638 Z"></path></clipPath><clipPath id="i48"><path d="M4.88715166,0.891913861 C5.27515166,1.47491386 5.18915166,1.93191386 5.34315166,2.16091386 C5.49615166,2.39091386 5.67215166,2.22191386 5.73815166,2.32091386 C5.75915166,2.35091386 5.75915166,2.37691386 5.71715166,2.40391386 L4.08215166,3.49591386 C4.01215166,3.54291386 3.97815166,3.53091386 3.95515166,3.49591386 C3.91615166,3.43691386 4.00415166,3.37891386 4.11115166,3.27191386 C4.76515166,2.63291386 5.31415166,1.83991386 4.74215166,0.979913861 C4.34115166,0.380913861 3.80715166,0.243913861 3.35415166,0.546913861 C2.16615166,1.33991386 4.32015166,3.30391386 2.86115166,4.27691386 C2.16815166,4.74091386 1.25715166,4.49791386 0.769151661,3.76891386 C0.400151661,3.21691386 0.439151661,2.76591386 0.330151661,2.59991386 C0.191151661,2.39391386 0.0861516614,2.59291386 0.0161516614,2.48691386 C-0.0118483386,2.44491386 -0.00984833861,2.40991386 0.0741516614,2.34591386 L1.11515166,1.49791386 C1.21915166,1.41091386 1.26815166,1.36991386 1.29715166,1.34991386 C1.33915166,1.32291386 1.36815166,1.32791386 1.38815166,1.35791386 C1.42815166,1.41691386 1.30815166,1.50591386 1.13515166,1.75691386 C0.654151661,2.45091386 0.478151661,3.02691386 0.915151661,3.68091386 C1.19315166,4.09791386 1.59615166,4.30691386 2.04315166,4.00791386 C3.00815166,3.36291386 0.877151661,1.33291386 2.47215166,0.267913861 C3.25415166,-0.254086139 4.29315166,0.00391386054 4.88715166,0.891913861 Z"></path></clipPath><clipPath id="i49"><path d="M4.58859716,0.110754011 C4.70259716,0.452754011 4.79859716,0.778754011 4.88859716,1.04775401 C4.97859716,1.31575401 5.10059716,1.63275401 5.21459716,1.97475401 C5.25159716,2.08175401 5.22659716,2.11975401 5.17359716,2.13875401 C4.98559716,2.20075401 5.05259716,1.53675401 4.51759716,1.71775401 L2.74759716,2.31175401 L3.33759716,4.06875401 L5.10759716,3.47475401 C5.64459716,3.29275401 5.18959716,2.80475401 5.37659716,2.74175401 C5.42959716,2.72375401 5.47259716,2.73875401 5.50859716,2.84675401 C5.62259716,3.18675401 5.71859716,3.51475401 5.80859716,3.78175401 C5.89859716,4.05075401 6.02059716,4.36775401 6.13559716,4.70975401 C6.17159716,4.81675401 6.14759716,4.85475401 6.09359716,4.87275401 C5.90559716,4.93575401 5.97359716,4.27175401 5.43759716,4.45175401 L1.96459716,5.62075401 C1.42959716,5.80075401 1.88459716,6.28975401 1.69659716,6.35275401 C1.64259716,6.37075401 1.60059716,6.35475401 1.56459716,6.24775401 C1.44859716,5.90575401 1.35459716,5.57975401 1.26359716,5.31075401 C1.17359716,5.04275401 1.05259716,4.72575401 0.937597156,4.38475401 C0.901597156,4.27675401 0.925597156,4.23875401 0.979597156,4.22175401 C1.16659716,4.15775401 1.09959716,4.82175401 1.63659716,4.64175401 L3.17759716,4.12275401 L2.58559716,2.36675401 L1.04459716,2.88575401 C0.508597156,3.06575401 0.963597156,3.55475401 0.776597156,3.61775401 C0.722597156,3.63675401 0.679597156,3.62075401 0.644597156,3.51375401 C0.528597156,3.17175401 0.433597156,2.84475401 0.343597156,2.57575401 C0.253597156,2.30775401 0.131597156,1.99075401 0.0175971557,1.64975401 C-0.0194028443,1.54275401 0.00559715572,1.50475401 0.0585971557,1.48575401 C0.246597156,1.42375401 0.179597156,2.08775401 0.714597156,1.90675401 L4.18759716,0.738754011 C4.72459716,0.558754011 4.26859716,0.0697540105 4.45659716,0.00675401055 C4.50959716,-0.0122459895 4.55259716,0.00475401055 4.58859716,0.110754011 Z"></path></clipPath><clipPath id="i50"><path d="M3.014,0.000257418583 C3.056,-0.00174258142 3.142,0.00825741858 3.219,0.0182574186 L4.803,0.253257419 C4.842,1.18525742 4.881,2.12525742 4.928,3.10725742 C4.942,3.39025742 4.973,3.72825742 4.991,4.08825742 C4.997,4.20125742 4.962,4.23125742 4.906,4.23425742 C4.708,4.24425742 4.954,3.62325742 4.389,3.65025742 L0.729,3.82825742 C0.165,3.85625742 0.469,4.45025742 0.272,4.46025742 C0.215,4.46325742 0.178,4.43625742 0.172,4.32325742 C0.156,3.96325742 0.153,3.62325742 0.139,3.34025742 C0.096,2.46525742 0.049,1.63225742 0,0.799257419 L1.333,0.379257419 C1.438,0.346257419 1.494,0.329257419 1.514,0.328257419 C1.549,0.326257419 1.573,0.347257419 1.575,0.396257419 C1.579,0.459257419 1.458,0.459257419 1.012,0.756257419 C0.477,1.11525742 0.209,1.58825742 0.25,2.43525742 L0.27,2.81725742 L2.304,2.71925742 L2.295,2.54125742 C2.271,2.04725742 1.886,1.70525742 1.376,1.70125742 C1.235,1.70125742 1.198,1.68225742 1.195,1.61125742 C1.193,1.56825742 1.227,1.53925742 1.29,1.53525742 L3.452,1.43125742 C3.516,1.42825742 3.552,1.45325742 3.555,1.49625742 C3.557,1.56625742 3.524,1.59025742 3.383,1.60325742 C2.754,1.66225742 2.441,2.03925742 2.465,2.53325742 L2.473,2.71025742 L4.253,2.62325742 C4.579,2.60725742 4.742,2.47225742 4.719,2.01925742 C4.667,0.918257419 3.852,0.363257419 3.143,0.178257419 C3.006,0.142257419 2.943,0.138257419 2.94,0.0742574186 C2.938,0.0242574186 2.971,0.00225741858 3.014,0.000257418583 Z"></path></clipPath><clipPath id="i51"><path d="M1.17039781,0.00311134932 C1.28739781,0.0291113493 1.17839781,0.193111349 1.21939781,0.405111349 C1.26439781,0.632111349 1.44339781,0.903111349 1.99639781,1.02411135 L5.55339781,1.80411135 C5.68539781,1.83311135 5.77939781,1.86111135 5.76839781,1.91611135 C5.75439781,1.97811135 5.66039781,2.00911135 5.56439781,2.05311135 L1.02939781,4.24411135 L1.02539781,4.25811135 L3.83139781,4.87211135 C4.38339781,4.99311135 4.66039781,4.82311135 4.79539781,4.63511135 C4.92039781,4.46011135 4.89139781,4.26511135 5.00839781,4.29111135 C5.05039781,4.30011135 5.08139781,4.32111135 5.06239781,4.40411135 C5.01239781,4.64011135 4.93839781,4.90511135 4.87739781,5.18811135 C4.81439781,5.47211135 4.76939781,5.74511135 4.71839781,5.97911135 C4.69939781,6.06211135 4.66239781,6.06811135 4.62139781,6.05911135 C4.50439781,6.03311135 4.61139781,5.86911135 4.57039781,5.65711135 C4.52639781,5.43111135 4.34839781,5.15911135 3.79539781,5.03811135 L0.775397809,4.37711135 C0.394397809,4.53211135 0.262397809,4.70611135 0.185397809,4.92111135 C0.148397809,5.02811135 0.137397809,5.07711135 0.060397809,5.05911135 C0.00639780897,5.04811135 -0.00860219103,5.01611135 0.00439780897,4.96111135 C0.055397809,4.72611135 0.125397809,4.47411135 0.181397809,4.21811135 L0.350397809,3.44311135 L4.00239781,1.65111135 L4.00439781,1.63811135 L1.95939781,1.18911135 C1.40639781,1.06911135 1.13039781,1.23911135 0.994397809,1.42811135 C0.869397809,1.60211135 0.899397809,1.79811135 0.781397809,1.77211135 C0.740397809,1.76311135 0.709397809,1.74111135 0.727397809,1.65811135 C0.779397809,1.42411135 0.852397809,1.15711135 0.914397809,0.874111349 C0.976397809,0.591111349 1.02139781,0.317111349 1.07239781,0.0831113493 C1.09139781,0.000111349321 1.12839781,-0.00588865068 1.17039781,0.00311134932 Z"></path></clipPath><clipPath id="i52"><path d="M1.427,0.00581758247 C1.459,0.0198175825 1.507,0.0978175825 1.574,0.191817582 L4.447,4.39081758 L4.693,3.86681758 C5.036,3.13681758 4.907,2.52981758 4.638,2.06781758 C4.368,1.59681758 3.98,1.42381758 4.032,1.31381758 C4.044,1.28881758 4.078,1.26481758 4.129,1.28981758 C4.168,1.30781758 4.256,1.37181758 4.364,1.45481758 L5.591,2.35081758 C5.345,2.85981758 5.091,3.38281758 4.845,3.90681758 C4.599,4.43181758 4.366,4.96381758 4.119,5.48781758 C4.095,5.53881758 4.052,5.55081758 4.026,5.53781758 C3.994,5.52281758 3.961,5.47581758 3.906,5.39481758 L1.025,1.12981758 L0.844,1.51281758 C0.511,2.22381758 0.56,2.80181758 0.916,3.34381758 C1.234,3.82881758 1.336,3.81381758 1.297,3.89681758 C1.278,3.93481758 1.254,3.93881758 1.22,3.92481758 C1.201,3.91581758 1.156,3.87881758 1.072,3.80781758 L0,2.91381758 C0.216,2.45281758 0.449,1.99181758 0.67,1.51681758 C0.892,1.04481758 1.099,0.570817582 1.328,0.0838175825 C1.367,0.000817582472 1.395,-0.00918241753 1.427,0.00581758247 Z"></path></clipPath><clipPath id="i53"><path d="M3.24755197,0.0226086136 C3.40155197,0.146608614 2.80655197,0.447608614 3.24755197,0.801608614 L6.10555197,3.09360861 C6.54655197,3.44760861 6.71255197,2.80060861 6.86655197,2.92460861 C6.90955197,2.96060861 6.91955197,3.00460861 6.84955197,3.09160861 C6.62355197,3.37360861 6.40055197,3.62960861 6.22455197,3.85060861 C6.04655197,4.07160861 5.84555197,4.34460861 5.61855197,4.62660861 C5.54855197,4.71360861 5.50355197,4.71360861 5.45855197,4.67860861 C5.30455197,4.55460861 5.90055197,4.25360861 5.45855197,3.89960861 L4.00255197,2.73160861 L2.84355197,4.17660861 L4.30055197,5.34460861 C4.55255197,5.54689433 4.71442952,5.4223229 4.83581728,5.3015299 L4.92004177,5.21680978 C4.97216422,5.16769025 5.01726626,5.14018004 5.06155197,5.17560861 C5.10555197,5.21160861 5.11455197,5.25460861 5.04455197,5.34260861 C4.81755197,5.62560861 4.59555197,5.88060861 4.41855197,6.10160861 C4.24155197,6.32160861 4.04055197,6.59560861 3.81455197,6.87760861 C3.74355197,6.96560861 3.69855197,6.96560861 3.65355197,6.92960861 C3.49955197,6.80560861 4.09555197,6.50460861 3.65355197,6.15060861 L0.796551973,3.85860861 C0.355551973,3.50460861 0.189551973,4.15160861 0.0345519728,4.02760861 C-0.00944802718,3.99160861 -0.0194480272,3.94860861 0.0525519728,3.85960861 C0.276551973,3.57860861 0.500551973,3.32260861 0.677551973,3.10160861 C0.855551973,2.88060861 1.05655197,2.60760861 1.28055197,2.32660861 C1.35255197,2.23760861 1.39855197,2.23760861 1.44255197,2.27360861 C1.59655197,2.39760861 1.00055197,2.69860861 1.44255197,3.05260861 L2.71055197,4.07060861 L3.87055197,2.62560861 L2.60155197,1.60760861 C2.15955197,1.25360861 1.99455197,1.90060861 1.83955197,1.77660861 C1.79655197,1.74160861 1.78655197,1.69660861 1.85755197,1.60860861 C2.08155197,1.32760861 2.30655197,1.07160861 2.48355197,0.850608614 C2.65955197,0.629608614 2.86055197,0.356608614 3.08655197,0.0746086136 C3.15755197,-0.0133913864 3.20255197,-0.0133913864 3.24755197,0.0226086136 Z"></path></clipPath><clipPath id="i54"><path d="M2.95042326,0 L4.02542326,0.894 C4.10942326,0.963 4.15342326,1.001 4.16642326,1.018 C4.18742326,1.047 4.18142326,1.076 4.14242326,1.106 C4.08942326,1.142 4.02642326,1.04 3.53342326,0.827 C2.94342326,0.572 2.40042326,0.604 1.70942326,1.097 L1.39942326,1.319 L2.58342326,2.976 L2.72842326,2.873 C3.13042326,2.585 3.21042326,2.076 2.93742326,1.646 C2.86042326,1.526 2.85742326,1.485 2.91342326,1.444 C2.94842326,1.419 2.99142326,1.432 3.02842326,1.483 L4.28842326,3.244 C4.32542326,3.295 4.32342326,3.341 4.28842326,3.365 C4.23142326,3.406 4.19342326,3.39 4.10542326,3.279 C3.71642326,2.783 3.22942326,2.723 2.82642326,3.011 L2.68342326,3.114 L3.72042326,4.564 C3.90942326,4.828 4.11142326,4.892 4.48042326,4.629 C5.37642326,3.987 5.40342326,3.003 5.17342326,2.306 C5.13042326,2.172 5.09942326,2.115 5.15142326,2.079 C5.19142326,2.05 5.22942326,2.067 5.25342326,2.101 C5.27842326,2.135 5.31642326,2.213 5.34942326,2.284 L6.01042326,3.742 C5.24742326,4.279 4.47842326,4.821 3.67942326,5.393 C3.44842326,5.558 3.18142326,5.767 2.88642326,5.977 C2.79442326,6.042 2.75142326,6.03 2.71842326,5.983 C2.60342326,5.823 3.25842326,5.693 2.92942326,5.233 L0.798423258,2.254 C0.468423258,1.794 0.134423258,2.372 0.0194232575,2.211 C-0.0135767425,2.164 -0.0115767425,2.119 0.0814232575,2.054 C0.374423258,1.844 0.657423258,1.658 0.888423258,1.493 C1.60242326,0.983 2.27742326,0.491 2.95042326,0 Z"></path></clipPath><clipPath id="i55"><path d="M4.85133458,0.0504095254 C4.89433458,0.162409525 4.69733458,0.161409525 4.54033458,0.310409525 C4.37433458,0.471409525 4.24533458,0.769409525 4.44533458,1.29940953 L5.73133458,4.70640953 C5.77933458,4.83240953 5.80633458,4.92840953 5.75333458,4.94740953 C5.69533458,4.97040953 5.61833458,4.90840953 5.52933458,4.85140953 L1.21933458,2.24440953 L1.20633458,2.24940953 L2.22033458,4.93540953 C2.41933458,5.46540953 2.71233458,5.60340953 2.94433458,5.61440953 C3.15933458,5.62440953 3.30633458,5.49340953 3.34933458,5.60540953 C3.36433458,5.64540953 3.36333458,5.68340953 3.28333458,5.71340953 C3.05833458,5.79840953 2.79533458,5.88240953 2.52533458,5.98440953 C2.25333458,6.08740953 1.99933458,6.19740953 1.77533458,6.28240953 C1.69633458,6.31240953 1.66933458,6.28440953 1.65633458,6.24440953 C1.61333458,6.13240953 1.81033458,6.13340953 1.96433458,5.98340953 C2.13033458,5.82340953 2.26033458,5.52440953 2.06033458,4.99540953 L0.970334583,2.10340953 C0.632334583,1.86840953 0.413334583,1.85240953 0.193334583,1.90540953 C0.0813345827,1.93340953 0.0343345827,1.95040953 0.00733458272,1.87740953 C-0.0116654173,1.82440953 0.00633458272,1.79440953 0.0603345827,1.77440953 C0.284334583,1.68940953 0.534334583,1.61040953 0.779334583,1.51840953 L1.52033458,1.23840953 L5.01233458,3.32240953 L5.02533458,3.31740953 L4.28633458,1.35940953 C4.08733458,0.829409525 3.79233458,0.691409525 3.56233458,0.680409525 C3.34733458,0.670409525 3.19933458,0.801409525 3.15733458,0.689409525 C3.14233458,0.649409525 3.14333458,0.611409525 3.22233458,0.581409525 C3.44733458,0.496409525 3.71033458,0.412409525 3.98233458,0.310409525 C4.25333458,0.207409525 4.50533458,0.0974095254 4.73133458,0.0124095254 C4.81033458,-0.0175904746 4.83533458,0.0114095254 4.85133458,0.0504095254 Z"></path></clipPath><clipPath id="i56"><path d="M0.664,0 C1.03,0 1.326,0.297 1.326,0.663 C1.326,1.03 1.03,1.327 0.664,1.327 C0.297,1.327 0,1.03 0,0.663 C0,0.297 0.297,0 0.664,0 Z"></path></clipPath><clipPath id="i57"><path d="M0.663,0 C1.029,0 1.326,0.297 1.326,0.663 C1.326,1.03 1.029,1.327 0.663,1.327 C0.297,1.327 0,1.03 0,0.663 C0,0.297 0.297,0 0.663,0 Z"></path></clipPath><clipPath id="i58"><path d="M1.91169386,0.153615644 C2.81269386,0.336615644 3.24969386,0.0956156444 3.38469386,0.140615644 C3.44569386,0.160615644 3.46069386,0.203615644 3.42269386,0.317615644 L2.14469386,4.13261564 C2.05069386,4.41461564 2.17469386,4.61961564 2.55069386,4.76861564 C2.90669386,4.90961564 2.98069386,4.93461564 2.94569386,5.03561564 C2.93169386,5.07461564 2.88469386,5.10461564 2.81169386,5.07961564 C2.35569386,4.92661564 1.89469386,4.76561564 1.46369386,4.62761564 C1.00569386,4.48261564 0.540693864,4.33461564 0.0846938642,4.18161564 C0.0106938642,4.15661564 -0.00930613585,4.10561564 0.00369386415,4.06561564 C0.0386938642,3.96461564 0.111693864,3.98861564 0.480693864,4.09061564 C0.869693864,4.19761564 1.09369386,4.10961564 1.18769386,3.82661564 L2.23669386,0.695615644 C2.28969386,0.541615644 2.25969386,0.494615644 2.13869386,0.453615644 L1.22669386,0.148615644 C1.16569386,0.127615644 1.14269386,0.0906156444 1.15869386,0.0426156444 C1.19169386,-0.0573843556 1.31069386,0.0346156444 1.91169386,0.153615644 Z"></path></clipPath><clipPath id="i59"><path d="M1.97560133,0.0176735166 C3.13560133,0.141673517 3.74160133,1.11767352 3.61560133,2.29167352 C3.39960133,4.32367352 0.74860133,4.82267352 0.43260133,4.78867352 C0.39760133,4.78467352 0.39360133,4.76267352 0.39760133,4.72767352 C0.40460133,4.64267352 1.89460133,4.42467352 2.47360133,2.73067352 C2.18060133,2.87867352 1.87960133,2.96567352 1.49960133,2.92467352 C0.35460133,2.80267352 -0.0673986702,2.01767352 0.00860132985,1.31567352 C0.0986013298,0.470673517 0.78560133,-0.110326483 1.97560133,0.0176735166 Z M0.98360133,1.37667352 C0.87960133,2.34067352 1.25860133,2.72867352 1.71560133,2.77767352 C2.05260133,2.81367352 2.44960133,2.62867352 2.54360133,2.48267352 C2.57660133,2.42867352 2.64960133,2.15267352 2.68060133,1.86467352 C2.81760133,0.590673517 2.45360133,0.196673517 1.93260133,0.140673517 C1.53160133,0.0976735166 1.09860133,0.293673517 0.98360133,1.37667352 Z"></path></clipPath><clipPath id="i60"><path d="M3.11668967,0.990304944 C3.15168967,1.40630494 2.96068967,1.81430494 2.64268967,2.07530494 C3.19268967,2.21230494 3.54668967,2.69330494 3.59968967,3.29130494 C3.66868967,4.10230494 2.92168967,4.82030494 1.76668967,4.91930494 C0.772689665,5.00530494 0.0656896653,4.46930494 0.00368966535,3.74430494 C-0.0313103347,3.34230494 0.181689665,2.84130494 0.685689665,2.50630494 C0.241689665,2.23330494 0.0426896653,1.88830494 0.0116896653,1.52230494 C-0.0553103347,0.761304944 0.624689665,0.0923049444 1.60468967,0.00730494444 C2.41568967,-0.0626950556 3.06368967,0.378304944 3.11668967,0.990304944 Z M0.854689665,2.58430494 C0.727689665,2.59630494 0.407689665,2.99230494 0.460689665,3.59830494 C0.524689665,4.36030494 0.993689665,4.85830494 1.75568967,4.79230494 C2.46068967,4.73230494 2.78868967,4.25630494 2.74168967,3.72130494 C2.70868967,3.34030494 2.52668967,3.04330494 1.74968967,2.83430494 C1.01568967,2.63430494 0.953689665,2.57630494 0.854689665,2.58430494 Z M1.62268967,0.133304944 C1.12968967,0.176304944 0.819689665,0.529304944 0.862689665,1.02930494 C0.924689665,1.74830494 2.01768967,1.90930494 2.52468967,2.02930494 C2.67768967,1.83030494 2.78868967,1.62330494 2.74568967,1.14430494 C2.68368967,0.418304944 2.24368967,0.0793049444 1.62268967,0.133304944 Z"></path></clipPath><clipPath id="i61"><path d="M2.76777585,0.781202495 C2.86577585,1.09220249 2.79977585,1.33520249 2.64677585,1.62720249 C3.16677585,1.79820249 3.59977585,2.07020249 3.77077585,2.61720249 C4.05477585,3.52820249 3.39677585,4.50420249 2.41177585,4.81320249 C1.45377585,5.11120249 0.69177585,4.85920249 0.54277585,4.38020249 C0.46077585,4.11720249 0.57477585,3.81520249 0.85077585,3.72920249 C1.19577585,3.62120249 1.40677585,3.77720249 1.56277585,4.23120249 C1.72477585,4.70020249 2.03577585,4.79620249 2.35977585,4.69420249 C2.90677585,4.52420249 3.17777585,3.99520249 2.95877585,3.29320249 C2.78177585,2.72620249 2.34777585,2.42520249 1.89277585,2.41820249 C1.59577585,2.41420249 1.34177585,2.57520249 1.31077585,2.47420249 C1.26377585,2.32520249 1.57477585,2.39220249 1.85777585,2.11020249 C2.04877585,1.91720249 2.08277585,1.57320249 1.96577585,1.20220249 C1.81077585,0.703202495 1.38477585,0.524202495 0.83677585,0.695202495 C0.11577585,0.921202495 0.20877585,1.48320249 0.0807758501,1.52420249 C0.0467758501,1.53420249 0.0187758501,1.51420249 0.00777585007,1.48120249 C-0.0462241499,1.30520249 0.16677585,0.372202495 1.09777585,0.0812024948 C1.76577585,-0.127797505 2.54177585,0.0532024948 2.76777585,0.781202495 Z"></path></clipPath><clipPath id="i62"><path d="M28.347,0 C32.173,0 35.885,0.749 39.38,2.227 C42.755,3.655 45.787,5.699 48.39,8.303 C50.993,10.906 53.036,13.937 54.465,17.312 C55.943,20.807 56.693,24.519 56.693,28.347 C56.693,32.173 55.943,35.886 54.465,39.38 C53.036,42.756 50.993,45.787 48.39,48.39 C45.787,50.993 42.755,53.037 39.38,54.465 C35.885,55.943 32.173,56.692 28.347,56.692 C24.52,56.692 20.808,55.943 17.313,54.465 C13.937,53.037 10.906,50.993 8.302,48.39 C5.7,45.787 3.656,42.756 2.228,39.38 C0.749,35.886 0,32.173 0,28.347 C0,24.519 0.749,20.807 2.228,17.312 C3.656,13.937 5.7,10.906 8.302,8.303 C10.906,5.699 13.937,3.655 17.313,2.227 C20.808,0.749 24.52,0 28.347,0 Z M28.347,0.994 C13.265,0.994 0.995,13.265 0.995,28.347 C0.995,43.429 13.265,55.698 28.347,55.698 C43.429,55.698 55.699,43.429 55.699,28.347 C55.699,13.265 43.429,0.994 28.347,0.994 Z"></path></clipPath><clipPath id="i63"><path d="M0.508473892,0.298467455 C0.652473892,0.305467455 0.940473892,0.417467455 0.943473892,0.502467455 C0.945473892,0.513467455 0.889473892,0.547467455 0.869473892,0.555467455 C0.818473892,0.579467455 0.697473892,0.695467455 0.496473892,0.701467455 C0.400473892,0.704467455 0.351473892,0.688467455 0.294473892,0.652467455 C0.236473892,0.627467455 0.0564738918,0.547467455 0.0564738918,0.493467455 C0.0564738918,0.450467455 0.332473892,0.290467455 0.508473892,0.298467455 Z"></path></clipPath><clipPath id="i64"><path d="M0.205648099,0.249367605 C0.603648099,0.193367605 1.9926481,0.228367605 2.3916481,0.228367605 C2.49435398,0.231897017 2.58699758,0.233461031 2.67039143,0.234153887 L2.89363629,0.234713219 C3.32073114,0.235004283 3.39135398,0.244720546 3.3286481,0.564367605 C3.1686481,0.796367605 2.9326481,0.686367605 2.0006481,0.736367605 L1.4186481,0.781367605 L1.06344106,0.781874879 C1.00981486,0.782003752 0.958885955,0.78213468 0.910519061,0.782237499 L0.649979569,0.7822758 C0.0700798402,0.780321743 0.00575502721,0.758469602 0.000421748672,0.614917371 L0.000648098635,0.513367605 C0.000648098635,0.423367605 0.0236480986,0.273367605 0.205648099,0.249367605 Z"></path></clipPath><clipPath id="i65"><path d="M15.58,21.206 L14.9227831,21.2069316 C14.8729449,21.2070005 14.8209161,21.207072 14.7669279,21.2071458 L14.2343684,21.2078599 C14.1707033,21.2079435 14.1057721,21.2080282 14.0398057,21.2081135 L13.4244,21.2088865 C13.3543028,21.2089718 13.2838638,21.2090565 13.2133141,21.2091401 L12.5816155,21.2098542 C12.512481,21.209928 12.4439291,21.2099995 12.3761908,21.2100684 L11.1525489,21.2109826 L11.025,21.211 C8.512,21.194 8.44,21.425 8.275,21.849 C8.166,22.448 8.062,23.071 8.031,23.68 C8.019,24.129 7.848,24.213 8.613,24.403 C8.916,24.469 8.99,22.845 9.087,22.45 C9.173,22.099 9.195,21.932 10.217,21.926 C10.7105,21.917375 11.4710469,21.9187344 12.2599648,21.9238027 L12.7874941,21.9276623 C13.9282309,21.9369167 15.0175,21.951 15.336,21.951 C15.926,21.951 15.934,22.558 15.934,22.558 C15.934,22.558 15.8984444,22.9388889 15.8747407,23.3608148 L15.86232,23.616176 C15.8572,23.7436 15.854,23.8686 15.854,23.982 C15.854,24.55 15.172,24.561 15.172,24.561 L13.25,24.561 L13.25,23.993 C13.25,23.993 13.4190083,23.9803967 13.6177498,23.9666476 L13.861598,23.9503321 C14.0217934,23.9400661 14.1653636,23.932 14.221,23.932 C15.074,23.806 14.914,23.653 15,23.216 C15.016,22.448 15.13,22.387 14.267,22.307 C13.714,22.287 11.581,22.325 10.827,22.341 C9.949,22.399 9.951,22.268 9.85,23.239 C9.91,23.781 9.717,23.95 10.91,24.001 C10.9631429,24.0038571 11.0293265,24.0055306 11.1037405,24.0063003 L11.346863,24.0061778 C11.7771837,24.0023878 12.293,23.983 12.293,23.983 L12.293,24.561 L11.299,24.561 C10.545,24.561 9.99,24.52 9.73,24.483 C9.263,24.454 9.191,24.525 9.154,24.814 C9.166,25.174 9.128,25.165 9.848,25.251 C10.283,25.276 10.982,25.311 12.293,25.392 C12.316,25.827 12.328,25.944 11.927,26.109 C11.357,26.278 10.248,26.176 9.564,26.057 C8.712,25.749 8.334,25.505 7.935,25.19 C7.673,25.664 8.016,26.215 8.222,26.557 C8.404,26.89 11.217,26.999 11.658,26.96 C13.519,26.768 13.26,26.651 13.232,26.196 C13.211,25.868 13.256,25.507 13.256,25.344 C13.334,25.3366667 14.1408889,25.3333333 14.8787407,25.3319259 L15.9394161,25.3315517 C16.6444959,25.3383636 16.6711364,25.388 16.716,24.275 C16.758,23.427 16.802,23.08 16.717,21.991 C16.61,21.246 16.347,21.255 15.58,21.206 Z M22.822,18.395 C22.555,18.001 22.6,17.936 22.008,17.979 C21.601,18.03 21.702,18.206 21.865,18.561 C21.967,18.833 22.107,19.093 22.141,19.293 C22.246,19.797 22.249,19.852 22.142,20.44 C21.98,21.054 21.85,21.306 21.705,21.652 C21.525,22.005 21.346,22.45 21.264,22.757 C21.095,23.181 21.198,23.844 21.285,24.665 C21.434,25.397 21.513,25.701 21.6,26.014 C21.785,26.587 21.893,26.842 22.113,26.88 C22.43,26.933 22.525,26.935 22.767,26.879 C22.957,26.834 22.625,26.239 22.529,25.973 C22.402,25.622 22.191,24.61 22.123,23.669 C22.061,22.822 22.244,22.458 22.693,21.569 C23.16,20.542 23.182,19.987 23.12,19.498 C23.107,19.289 23.104,19.043 22.822,18.395 Z M23.867,18.009 C23.221,18.009 23.779,18.738 23.943,19.215 C24.039,19.49 24.109,19.683 24.051,20.321 C23.953,21.313 23.35,21.683 23.076,22.874 C22.987,23.675 23.068,24.225 23.187,25.101 C23.346,25.921 23.574,26.428 23.828,26.705 C23.949,26.838 24.322,26.862 24.531,26.813 C24.797,26.745 24.389,26.198 24.211,25.571 C24.01,24.768 23.961,24.137 23.92,23.647 C23.918,22.944 24.199,22.54 24.478,21.821 C24.726,21.184 25.064,20.452 25.004,19.721 C24.959,19.229 24.68,18.378 24.43,18.183 C24.271,18.062 24.265,18.009 23.867,18.009 Z M25.473,18.036 C25.174,18.052 25.35,18.303 25.48,18.629 C25.654,19.182 25.725,19.324 25.719,20.518 C25.565,21.397 25.305,21.856 25.144,22.203 C24.586,23.287 24.881,24.626 25.057,25.395 C25.151,25.668 25.332,26.456 25.553,26.626 C25.701,26.74 26.127,26.84 26.318,26.782 C26.508,26.724 26.129,25.949 26.053,25.556 C25.937,25.141 25.668,24.012 25.666,23.498 C25.898,22.154 26.18,22.296 26.504,21.082 C26.676,19.868 26.656,19.593 26.5,18.894 C26.246,18.302 26.357,18.036 25.473,18.036 Z M19.809,19.411 C19.785,18.832 19.898,18.649 19.408,18.719 C18.853,18.821 19,19.14 18.977,19.843 C18.937,20.902 19.262,22.163 18.701,22.124 C18.477,22.124 18.527,21.702 18.531,21.303 C18.534,20.886 18.693,19.989 18.398,20.054 C17.713,20.194 17.832,20.472 17.793,21.016 C17.769,21.286 17.779,21.671 17.777,22.074 L17.777864,22.3529256 C17.7855594,23.0613058 17.8485143,23.0949545 18.2384941,23.0020165 L18.3901554,22.9648512 L18.477,22.944 C18.951,22.824 18.859,23.128 18.871,23.463 C18.838,23.835 18.975,24.33 18.74,24.519 C18.425,24.793 18.184,24.748 17.827,24.735 C17.465,24.689 17.506,24.822 17.506,25.201 C17.549,25.533 17.543,25.765 17.984,25.768 C18.457,25.771 18.739,25.735 19.234,25.675 C19.3723,25.6603 19.54786,25.64155 19.732357,25.621288 L20.104875,25.5795 C20.41125,25.54425 20.69,25.5095 20.81,25.487 C21.047,25.459 20.938,24.503 20.632,24.509 C20.226,24.547 19.955,24.621 19.856,24.507 C19.771,24.417 19.732,23.102 19.853,22.923 C19.975,22.743 20.545,22.668 20.702,22.514 C20.86,22.358 21.015,22.186 21.078,21.72 C21.156,21.299 21.176,21.093 21.207,20.699 C21.207,20.395 21.196,20.016 21.133,19.613 C21.066,19.227 21.059,19.255 20.721,19.269 C20.283,19.306 20.357,19.492 20.371,19.925 C20.401,20.206 20.489,21.813 20.019,21.849 C19.783,21.866 19.815,19.964 19.809,19.411 Z M13.788,18.042 C13.601,18.032 12.914,18.417 12.767,18.507 C12.73,18.528 12.664,18.561 12.577,18.6 C12.398,18.507 12.258,18.445 12.215,18.431 C12.074,18.382 11.617,18.11 11.451,18.085 C11.314,18.111 11.08,18.459 11.146,18.495 C11.242,18.663 11.543,18.821 11.812,18.957 C11.688,19.016 11.578,19.068 11.445,19.137 C11.027,19.36 11.084,19.508 11.084,19.645 C11.098,19.742 11.248,19.828 11.299,19.854 C11.496,19.979 11.684,20.048 11.847,20.134 C11.713,20.227 11.527,20.316 11.49,20.336 C11.113,20.562 10.978,20.546 11.2,20.87 C11.328,21.054 11.39,21.039 11.758,20.871 C12.031,20.753 12.324,20.598 12.557,20.464 C12.933,20.669 13.35,20.835 13.416,20.866 C13.547,20.923 13.834,21.073 14.037,20.79 C14.196,20.516 14.224,20.59 13.693,20.286 C13.576,20.225 13.451,20.165 13.326,20.106 C13.486,20.036 13.613,19.947 13.764,19.882 C13.828,19.852 13.953,19.752 13.984,19.695 C14.017,19.406 13.959,19.343 13.672,19.201 C13.653,19.1915 13.60325,19.16475 13.53275,19.1265 L13.3670463,19.0363704 L13.269,18.983 C13.439,18.916 13.695,18.729 13.923,18.581 C14.102,18.474 13.842,18.078 13.788,18.042 Z M10.1256101,18.1249509 L10.002,18.124 C8.664,18.182 8.644,18.118 8.492,18.438 C8.354,18.97 8.328,19.57 8.283,20.203 C8.264,20.905 8.262,20.877 8.611,20.925 C8.937,20.961 10.257,20.825 10.601,20.825 C10.601,20.825 10.635,20.689 10.612,20.491 C10.576,20.173 10.542,20.245 10.07,20.265 C9.345,20.302 9.15,20.354 9.14,20.116 C9.137,19.835 9.031,19.862 10.233,19.803 C10.585,19.79 10.568,19.752 10.567,19.59 C10.547,19.162 10.579,19.274 10.059,19.274 C9.465,19.294 9.162,19.321 9.162,19.141 C9.15,18.776 9.065,18.818 9.588,18.829 C10.736,18.762 10.701,18.727 10.689,18.554 C10.633,18.081 10.709,18.132 10.002,18.124 Z M16.6,18.439 C16.545,18.078 15.898,18.176 15.098,18.191 C14.31,18.237 14.438,18.321 14.438,18.627 C14.449,18.942 14.5,18.866 15.489,18.8 C15.957,18.768 16.019,18.858 15.963,19.115 C15.93,19.259 15.437,19.211 14.842,19.265 C14.416,19.288 14.486,19.462 14.547,19.761 C14.568,19.861 14.545,19.874 15.035,19.858 C15.887,19.828 15.947,19.877 15.947,20.114 C15.947,20.427 15.537,20.386 15.015,20.373 C14.476,20.363 14.453,20.393 14.459,20.707 C14.453,20.925 14.475,20.903 14.625,20.919 C14.656,20.927 16.256,20.883 16.536,20.826 C16.751,20.788 16.781,20.804 16.767,20.253 C16.744,19.427 16.736,18.865 16.6,18.439 Z M12.4251971,8.17274283 L12.34,8.181 C11.889,8.253 11.833,8.273 11.791,8.808 C11.752,9.323 11.601,9.652 10.959,9.652 C10.679,9.652 10.154,9.697 9.758,9.654 C8.99,9.716 8.517,9.57 8.322,10.349 C8.322,11.626 8.131,13.518 8.496,13.518 C9.055,13.516 9.101,13.606 9.099,13.044 C9.102,12.662 9.099,12.247 9.16,11.304 C9.232,10.192 11.028,10.45 11.426,10.495 C11.829,10.565 11.868,10.894 11.76,12.282 C11.541,13.043 11.373,13.127 10.687,13.766 C10.043,14.227 8.541,15.876 8.195,16.69 C8.006,17.238 7.996,17.231 8.324,17.44 C8.684,17.606 8.924,17.278 9.135,16.952 C9.553,16.216 11.225,14.067 12.436,14.136 C13.243,14.181 14.15,14.961 14.398,15.276 C15.111,16.185 16.133,17.582 16.404,17.44 C17.178,17.2 16.744,16.521 16.256,16.003 C15.434,15.024 14.621,14.19 13.726,13.532 C12.84,12.954 12.842,12.497 12.842,12.062 C12.879,11.515 12.726,10.748 13.099,10.571 C13.49,10.388 14.838,10.39 15.32,10.606 C16.133,10.972 15.475,13.119 15.788,13.288 C16.037,13.334 16.382,13.153 16.508,13.001 C16.806,12.642 16.558,11.725 16.531,10.753 C16.482,9.597 16.071,9.671 15.318,9.599 C14.986,9.57 14.396,9.554 13.623,9.554 C12.717,9.509 12.93,9.461 12.786,8.832 C12.703,8.427 12.742,8.117 12.34,8.181 Z M19.377,8.281 C19.146,8.304 19.012,8.323 18.972,8.456 C18.885,8.747 18.925,9.123 18.914,9.39 C18.969,9.797 18.832,11.399 18.795,11.865 C18.759,12.332 18.584,13.456 18.646,14.471 C18.689,15.37 18.703,16.425 18.943,17.113 C19.023,17.272 19.34,17.222 19.422,17.181 C19.674,16.943 19.219,14.4 19.333,13.446 C19.333,12.863 19.635,10.643 19.67,9.514 C19.67,9.514 19.75,8.21 19.377,8.281 Z M23.809,10.938 C23.655,10.925 23.402,10.89 23.357,10.966 C23.211,11.208 23.182,11.506 23.18,11.666 C23.139,11.769 22.523,11.788 22.523,11.788 L21.66,11.859 C20.996,11.894 21.043,12.103 21.152,12.347 C21.368,12.831 21.617,12.609 21.9,12.612 C21.9882222,12.6024444 22.0884444,12.5904198 22.1928313,12.5779451 L22.5106502,12.5411907 C22.7728519,12.5128025 23.0121111,12.4942222 23.106,12.517 C23.211,12.532 23.303,13.031 22.98,13.118 C22.435,13.349 21.473,13.591 21.405,13.946 C21.219,14.488 21.07,14.94 20.962,15.557 C20.903,16.146 20.81,16.67 20.91,17.024 C20.974,17.118 21.318,17.041 21.494,16.984 C21.586,16.954 21.609,16.798 21.631,16.676 C21.665,16.477 21.769,15.852 21.918,14.919 C22.074,13.934 23.012,13.99 23.086,14.069 C23.1424706,14.1311176 23.1590796,14.9700381 23.1611508,15.6188832 L23.1610922,15.9229898 C23.1605744,16.0626471 23.1594118,16.1803529 23.158,16.261 C23.15,16.718 23.096,17.001 23.586,17.129 C23.844,17.167 24.1,17.258 24.09,16.682 C24.09,16.682 24.055,14.237 24.139,14.114 C24.25,13.95 24.738,13.968 25.257,14.217 C25.865,14.417 25.807,15.806 25.826,16.25 C25.846,16.931 25.803,17.167 26.288,16.995 C26.74,16.835 26.616,16.619 26.627,16.308 C26.617,16.029 26.638,15.525 26.48,14.612 C26.217,13.531 26.236,13.632 24.568,13.144 C24.064,13.029 24.143,13.009 24.094,12.892 C24.058,12.731 24.048,12.573 24.129,12.535 C24.256,12.518 25.121,12.49 25.654,12.485 C26.012,12.466 26.228,12.515 26.338,12.4 C26.414,12.321 26.412,12.01 26.404,11.859 C26.43,11.552 25.867,11.641 25.105,11.665 C24.023,11.691 24.09,11.641 24.07,11.455 C24.012,11.047 24.137,11.032 23.809,10.938 Z M18.316,12.2 C18.23,12.091 17.977,11.958 17.785,12.055 C17.61,12.318 17.519,12.47 17.519,13.362 C17.519,13.362 17.5141074,13.6142975 17.5127851,13.9758422 L17.512595,14.2652494 C17.5130909,14.4688633 17.5150083,14.6908482 17.519405,14.9133231 L17.5279917,15.2451675 C17.5387025,15.5729091 17.5561818,15.8816364 17.584,16.111 C17.607,16.311 17.81,16.399 18.103,16.301 C18.38,16.184 18.156,15.48 18.202,14.786 C18.229,14.087 18.44,12.514 18.316,12.2 Z M20.115,12.454 C19.709,12.525 19.641,12.452 19.723,13.086 C19.805,13.72 19.812,14.372 19.812,14.654 C19.812,14.935 19.896,15.782 20.055,15.876 C20.254,15.916 20.381,15.894 20.492,15.807 C20.543,15.669 20.527,15.434 20.517,15.116 C20.517,14.788 20.492,13.836 20.484,13.688 C20.484,13.688 20.465,12.595 20.115,12.454 Z M20.177,8.549 C19.937,8.566 19.955,8.638 19.94,8.926 C19.977,9.295 20.021,10.158 19.971,10.469 C19.92,10.78 19.814,11.083 19.838,11.28 C19.818,11.619 19.998,11.59 20.299,11.548 C20.567,11.445 20.562,10.72 20.566,10.379 C20.572,9.796 20.58,9.175 20.586,8.871 C20.555,8.679 20.559,8.539 20.177,8.549 Z M18.393,8.64 C18.18,8.592 18.001,8.642 17.937,8.71 C17.875,8.92 17.93,9.701 17.818,10.386 C17.736,10.883 17.646,11.226 17.73,11.379 C17.795,11.498 17.998,11.477 18.164,11.475 C18.726,11.034 18.646,8.819 18.393,8.64 Z M23.761,8.272 C23.283,8.259 22.785,8.402 21.869,8.568 C21.1,8.856 21.064,8.714 20.918,10.099 C20.926,10.828 20.792,11.08 21.311,11.099 C21.871,11.079 22.295,11.145 22.787,10.919 C22.915,10.775 23.035,10.435 23.105,10.327 C23.451,9.636 23.25,9.614 23.451,9.464 C23.933,9.289 24.193,10.716 24.406,10.977 C25.06,11.159 25.329,11.114 25.832,11.13 C26.445,11.071 26.496,11.169 26.562,10.571 C26.541,8.981 26.713,8.841 26.289,8.689 C25.307,8.314 24.238,8.287 23.761,8.272 Z M16.408,4.309 L13.923,4.309 C13.373,4.309 12.928,4.755 12.928,5.304 L16.906,5.304 L16.906,4.807 C16.906,4.532 16.684,4.309 16.408,4.309 Z M29.172,16.748 C29.172,17.114 29.321,17.446 29.562,17.686 L34.053,22.179 L34.062,22.189 C34.316,22.432 34.476,22.772 34.476,23.151 L34.476,23.9 C34.476,24.163 34.324,24.53 34.139,24.717 L32.822,26.032 L29.596,22.805 L29.586,22.794 C29.332,22.553 29.172,22.211 29.172,21.832 L29.172,21.837 L29.172,22.768 C29.172,23.0834286 29.2814694,23.3724082 29.4645131,23.5996735 L29.562,23.708 L32.354,26.501 L24.795,34.059 L22.75,30.381 C22.574,30.057 22.232,29.836 21.837,29.836 L21.047,29.836 C21.449,29.836 21.798,30.064 21.97,30.399 L24.207,34.425 C24.1,34.457 23.993,34.476 23.899,34.476 L20.02,34.476 L19.279,30.387 C19.225,30.073 18.95,29.836 18.621,29.836 L17.943,29.836 C18.273,29.836 18.549,30.077 18.601,30.392 L19.342,34.476 L15.133,34.476 L15.873,30.392 C15.927,30.077 16.201,29.836 16.533,29.836 L15.854,29.836 C15.525,29.836 15.252,30.073 15.195,30.387 L14.455,34.476 L10.576,34.476 C10.482,34.476 10.375,34.457 10.267,34.424 L12.506,30.399 C12.678,30.064 13.026,29.836 13.428,29.836 L12.639,29.836 C12.244,29.836 11.9,30.057 11.725,30.381 L9.681,34.059 L2.121,26.501 L4.913,23.708 C5.154,23.468 5.303,23.136 5.303,22.768 L5.302,21.837 L5.29566992,21.9722656 C5.2665957,22.2488281 5.15251367,22.5000781 4.98000195,22.6990156 L4.889,22.794 L4.881,22.805 L1.653,26.032 L0.338,24.717 C0.151,24.53 0,24.163 0,23.9 L0,23.151 C0,22.772 0.158,22.432 0.414,22.189 L0.422,22.179 L4.912,17.688 C5.154,17.446 5.303,17.114 5.303,16.748 L5.302,15.813 L5.29566992,15.9512676 C5.2665957,16.2278418 5.15251367,16.4791738 4.98000195,16.6786855 L4.889,16.774 L4.881,16.784 L0.391,21.275 C0.148,21.516 0,21.849 0,22.216 L0,17.132 C0,16.753 0.158,16.411 0.414,16.169 L0.422,16.159 L4.912,11.667 C5.154,11.427 5.303,11.095 5.303,10.727 L5.302,9.796 L5.29566992,9.93126563 C5.2665957,10.2078281 5.15251367,10.4590781 4.98000195,10.6580156 L4.889,10.753 L4.881,10.764 L0.391,15.255 C0.148,15.496 0,15.828 0,16.195 L0,16.186 L0,10.576 C0,10.3505714 0.110938776,10.0487347 0.260396501,9.84996501 L0.338,9.76 L9.76,0.338 C9.945,0.152 10.312,0 10.576,0 L11.271,0 C11.453,0 11.601,0.148 11.601,0.331 L11.601,4.807 C11.601,5.081 11.824,5.303 12.098,5.304 L12.596,5.304 L12.596,0.995 C12.596,0.445 13.041,0 13.592,0 L20.885,0 C21.434,0 21.879,0.445 21.879,0.995 L21.879,5.304 L22.377,5.304 C22.651,5.303 22.873,5.081 22.873,4.807 L22.873,0.331 C22.873,0.148 23.021,0 23.205,0 L23.899,0 C24.162,0 24.53,0.152 24.717,0.338 L34.139,9.76 C34.324,9.946 34.476,10.313 34.476,10.576 L34.476,16.186 L34.4670437,16.0400233 C34.4374665,15.7858542 34.3360233,15.5536968 34.1834869,15.3643236 L34.086,15.256 L29.596,10.764 L29.586,10.753 C29.332,10.512 29.172,10.17 29.172,9.791 L29.172,9.796 L29.172,10.727 C29.172,11.0424286 29.2814694,11.3314082 29.4645131,11.5580437 L29.562,11.666 L34.053,16.158 L34.062,16.169 C34.316,16.411 34.476,16.753 34.476,17.132 L34.476,22.216 C34.476,21.849 34.327,21.516 34.086,21.276 L29.596,16.784 L29.586,16.774 C29.332,16.532 29.172,16.19 29.172,15.811 L29.172,15.813 Z"></path></clipPath><clipPath id="i66"><path d="M0.220193454,0.00361609662 C0.587193454,-0.00438390338 0.966193454,-0.0223839034 1.09919345,0.247616097 C1.22019345,0.699616097 1.24419345,1.0096161 1.03319345,1.0586161 L0.630193454,1.0816161 C0.198193454,1.0226161 0.159193454,1.1616161 0.0111934535,0.265616097 C-0.0358065465,0.0346160966 0.0711934535,0.0116160966 0.220193454,0.00361609662 Z"></path></clipPath><clipPath id="i67"><path d="M0.434892246,0.0496261096 C0.754892246,-0.0083738904 1.08389225,-0.0533738904 1.04989225,0.14262611 C0.978892246,0.63362611 1.01289225,0.95262611 0.426892246,0.99262611 L0.135892246,1.01462611 C-0.0731077542,0.95262611 0.0068922458,0.53062611 0.0628922458,0.31862611 C0.120892246,0.0936261096 0.129892246,0.10862611 0.434892246,0.0496261096 Z"></path></clipPath></defs><g clip-path="url(#i0)" transform="translate(-557.0 -160.0)"><g clip-path="url(#i1)"><g transform="translate(660.868027340056 198.29649482125745)"><g clip-path="url(#i2)"><polygon points="-1.24348636e-14,9.1789873e-15 5.07717266,9.1789873e-15 5.07717266,5.81940518 -1.24348636e-14,5.81940518 -1.24348636e-14,9.1789873e-15" stroke="none" fill="#1A1918"></polygon></g></g><g transform="translate(653.0966538715948 183.673204872089)"><g clip-path="url(#i3)"><polygon points="-5.14744478e-17,-2.71216252e-14 6.21507593,-2.71216252e-14 6.21507593,19.1406951 -5.14744478e-17,19.1406951 -5.14744478e-17,-2.71216252e-14" stroke="none" fill="#1A1918"></polygon></g></g><g transform="translate(660.7066000000002 172.8219697815431)"><g clip-path="url(#i4)"><polygon points="0,-1.66435819e-14 13.8385854,-1.66435819e-14 13.8385854,34.4969302 0,34.4969302 0,-1.66435819e-14" stroke="none" fill="#1A1918"></polygon></g></g><g transform="translate(670.9522000000001 195.42059758593996)"><g clip-path="url(#i5)"><polygon points="0,-3.83606859e-15 5.84960148,-3.83606859e-15 5.84960148,6.55780241 0,6.55780241 0,-3.83606859e-15" stroke="none" fill="#1A1918"></polygon></g></g><g transform="translate(654.4711970336718 177.3755296628347)"><g clip-path="url(#i6)"><polygon points="2.48602045e-14,-1.64657765e-14 4.5689114,-1.64657765e-14 4.5689114,4.71327034 2.48602045e-14,4.71327034 2.48602045e-14,-1.64657765e-14" stroke="none" fill="#1A1918"></polygon></g></g><g transform="translate(661.2517848951308 178.5398177820548)"><g clip-path="url(#i7)"><polygon points="-4.91472675e-14,5.80766181e-15 3.27598813,5.80766181e-15 3.27598813,4.89848088 -4.91472675e-14,4.89848088 -4.91472675e-14,5.80766181e-15" stroke="none" fill="#1A1918"></polygon></g></g><g transform="translate(688.5243396925248 179.70695745592047)"><g clip-path="url(#i8)"><polygon points="-1.57555184e-15,-1.08036367e-14 9.09256031,-1.08036367e-14 9.09256031,21.6732425 -1.57555184e-15,21.6732425 -1.57555184e-15,-1.08036367e-14" stroke="none" fill="#1A1918"></polygon></g></g><g transform="translate(697.59095 184.18926884956272)"><g clip-path="url(#i9)"><polygon points="2.84217094e-14,-8.46537037e-15 4.2856977,-8.46537037e-15 4.2856977,14.6868312 2.84217094e-14,14.6868312 2.84217094e-14,-8.46537037e-15" stroke="none" fill="#1A1918"></polygon></g></g><g transform="translate(706.6969885132835 177.33153092241616)"><g clip-path="url(#i10)"><polygon points="1.70766315e-15,2.44609967e-14 3.55734453,2.44609967e-14 3.55734453,29.7879691 1.70766315e-15,29.7879691 1.70766315e-15,2.44609967e-14" stroke="none" fill="#1A1918"></polygon></g></g><g transform="translate(702.8061691642488 184.71494900273564)"><g clip-path="url(#i11)"><polygon points="-3.57383162e-14,2.31416541e-14 3.59083084,2.31416541e-14 3.59083084,10.924151 -3.57383162e-14,10.924151 -3.57383162e-14,2.31416541e-14" stroke="none" fill="#1A1918"></polygon></g></g><g transform="translate(734.3831393380689 192.86762415660007)"><g clip-path="url(#i12)"><polygon points="2.56929788e-14,-2.73464688e-14 12.3953689,-2.73464688e-14 12.3953689,11.0136758 2.56929788e-14,11.0136758 2.56929788e-14,-2.73464688e-14" stroke="none" fill="#1A1918"></polygon></g></g><g transform="translate(723.1143000000001 176.94733734361307)"><g clip-path="url(#i13)"><polygon points="0,-1.64883111e-14 17.2560314,-1.64883111e-14 17.2560314,26.4324627 0,26.4324627 0,-1.64883111e-14" stroke="none" fill="#1A1918"></polygon></g></g><g transform="translate(765.2882355976999 173.21384864539374)"><g clip-path="url(#i14)"><polygon points="5.63106648e-14,1.26638878e-14 3.5810644,1.26638878e-14 3.5810644,10.4100514 5.63106648e-14,10.4100514 5.63106648e-14,1.26638878e-14" stroke="none" fill="#1A1918"></polygon></g></g><g transform="translate(762.9887731506426 170.60787482176983)"><g clip-path="url(#i15)"><polygon points="-3.44425577e-14,1.35778867e-14 17.5230268,1.35778867e-14 17.5230268,18.3746252 -3.44425577e-14,18.3746252 -3.44425577e-14,1.35778867e-14" stroke="none" fill="#1A1918"></polygon></g></g><g transform="translate(760.9184093124042 174.47909999999996)"><g clip-path="url(#i16)"><polygon points="-3.20218382e-14,0 4.09647069,0 4.09647069,9.346 -3.20218382e-14,9.346 -3.20218382e-14,0" stroke="none" fill="#1A1918"></polygon></g></g><g transform="translate(760.8923000000002 189.04308079063293)"><g clip-path="url(#i17)"><polygon points="0,-1.70080687e-14 19.617856,-1.70080687e-14 19.617856,19.4786192 0,19.4786192 0,-1.70080687e-14" stroke="none" fill="#1A1918"></polygon></g></g><g transform="translate(757.3072749758124 185.4518583073924)"><g clip-path="url(#i18)"><polygon points="-5.4151381e-14,2.53433931e-16 4.33188399,2.53433931e-16 4.33188399,8.74074169 -5.4151381e-14,8.74074169 -5.4151381e-14,2.53433931e-16" stroke="none" fill="#1A1918"></polygon></g></g><g transform="translate(663.0347444369302 182.39997368147277)"><g clip-path="url(#i19)"><polygon points="-4.6470744e-14,4.82889143e-15 3.94525556,4.82889143e-15 3.94525556,4.82702632 -4.6470744e-14,4.82702632 -4.6470744e-14,4.82889143e-15" stroke="none" fill="#1A1918"></polygon></g></g><g transform="translate(652.9835 213.61420000000004)"><g clip-path="url(#i20)"><polygon points="0,0 4.977,0 4.977,6.983 0,6.983 0,0" stroke="none" fill="#1A1918"></polygon></g></g><g transform="translate(659.1502 213.75149999999996)"><g clip-path="url(#i21)"><polygon points="0,0 7.141,0 7.141,6.708 0,6.708 0,0" stroke="none" fill="#1A1918"></polygon></g></g><g transform="translate(667.3924 213.75149999999996)"><g clip-path="url(#i22)"><polygon points="0,0 6.009,0 6.009,6.708 0,6.708 0,0" stroke="none" fill="#1A1918"></polygon></g></g><g transform="translate(674.2352999999999 213.75169999999997)"><g clip-path="url(#i23)"><polygon points="0,0 7.202,0 7.202,6.925 0,6.925 0,0" stroke="none" fill="#1A1918"></polygon></g></g><g transform="translate(682.0948 213.75149999999996)"><g clip-path="url(#i24)"><polygon points="0,0 5.43,0 5.43,6.708 0,6.708 0,0" stroke="none" fill="#1A1918"></polygon></g></g><g transform="translate(688.654 213.75149999999996)"><g clip-path="url(#i25)"><polygon points="0,0 7.143,0 7.143,6.708 0,6.708 0,0" stroke="none" fill="#1A1918"></polygon></g></g><g transform="translate(696.8962 213.75149999999996)"><g clip-path="url(#i26)"><polygon points="0,0 6.01,0 6.01,6.708 0,6.708 0,0" stroke="none" fill="#1A1918"></polygon></g></g><g transform="translate(703.7412000000002 213.75169999999997)"><g clip-path="url(#i27)"><polygon points="0,0 7.2,0 7.2,6.925 0,6.925 0,0" stroke="none" fill="#1A1918"></polygon></g></g><g transform="translate(715.1506 213.75219999999996)"><g clip-path="url(#i28)"><polygon points="0,0 6.806,0 6.806,6.845 0,6.845 0,0" stroke="none" fill="#1A1918"></polygon></g></g><g transform="translate(722.4473 213.75169999999997)"><g clip-path="url(#i29)"><polygon points="0,0 7.2,0 7.2,6.925 0,6.925 0,0" stroke="none" fill="#1A1918"></polygon></g></g><g transform="translate(730.4431000000001 213.75149999999996)"><g clip-path="url(#i30)"><polygon points="0,0 3.128,0 3.128,6.708 0,6.708 0,0" stroke="none" fill="#1A1918"></polygon></g></g><g transform="translate(734.3587 213.75159999999994)"><g clip-path="url(#i31)"><polygon points="0,0 7.061,0 7.061,6.846 0,6.846 0,0" stroke="none" fill="#1A1918"></polygon></g></g><g transform="translate(741.9998 213.75149999999996)"><g clip-path="url(#i32)"><polygon points="0,0 6.01,0 6.01,6.708 0,6.708 0,0" stroke="none" fill="#1A1918"></polygon></g></g><g transform="translate(749.2287999999999 213.75210000000004)"><g clip-path="url(#i33)"><polygon points="0,0 6.965,0 6.965,6.708 0,6.708 0,0" stroke="none" fill="#1A1918"></polygon></g></g><g transform="translate(756.918 213.61420000000004)"><g clip-path="url(#i34)"><polygon points="0,0 4.979,0 4.979,6.983 0,6.983 0,0" stroke="none" fill="#1A1918"></polygon></g></g><g transform="translate(763.0847000000001 213.75149999999996)"><g clip-path="url(#i35)"><polygon points="0,0 3.128,0 3.128,6.708 0,6.708 0,0" stroke="none" fill="#1A1918"></polygon></g></g><g transform="translate(767.0785000000001 213.61380000000003)"><g clip-path="url(#i36)"><polygon points="0,0 6.159,0 6.159,6.846 0,6.846 0,0" stroke="none" fill="#1A1918"></polygon></g></g><g transform="translate(773.6680000000001 213.7516)"><g clip-path="url(#i37)"><polygon points="0,0 6.551,0 6.551,6.708 0,6.708 0,0" stroke="none" fill="#1A1918"></polygon></g></g><g transform="translate(612.2540793838094 170.73528223961785)"><g clip-path="url(#i38)"><polygon points="-4.62648622e-14,-2.19101095e-14 4.83957161,-2.19101095e-14 4.83957161,5.25078793 -4.62648622e-14,5.25078793 -4.62648622e-14,-2.19101095e-14" stroke="none" fill="#751638"></polygon></g></g><g transform="translate(616.6077790157885 171.9079142486948)"><g clip-path="url(#i39)"><polygon points="-4.66617972e-15,-6.47931376e-15 6.64071919,-6.47931376e-15 6.64071919,6.27114944 -4.66617972e-15,6.27114944 -4.66617972e-15,-6.47931376e-15" stroke="none" fill="#751638"></polygon></g></g><g transform="translate(621.7195782035714 174.8851866382975)"><g clip-path="url(#i40)"><polygon points="4.83079386e-14,1.114132e-14 4.56714047,1.114132e-14 4.56714047,5.15765941 4.83079386e-14,5.15765941 4.83079386e-14,1.114132e-14" stroke="none" fill="#751638"></polygon></g></g><g transform="translate(625.4925301092204 176.94216377207118)"><g clip-path="url(#i41)"><polygon points="-3.79347369e-14,2.25446177e-14 5.33177125,2.25446177e-14 5.33177125,5.15826794 -3.79347369e-14,5.15826794 -3.79347369e-14,2.25446177e-14" stroke="none" fill="#751638"></polygon></g></g><g transform="translate(627.230735994032 181.32053641962415)"><g clip-path="url(#i42)"><polygon points="-3.892682e-15,-1.23542984e-14 5.98776401,-1.23542984e-14 5.98776401,5.85926358 -3.892682e-15,5.85926358 -3.892682e-15,-1.23542984e-14" stroke="none" fill="#751638"></polygon></g></g><g transform="translate(629.7541498469707 186.82092960110168)"><g clip-path="url(#i43)"><polygon points="4.42922448e-16,1.55432323e-14 5.37172807,1.55432323e-14 5.37172807,6.13012595 4.42922448e-16,6.13012595 4.42922448e-16,1.55432323e-14" stroke="none" fill="#751638"></polygon></g></g><g transform="translate(631.0738847306777 193.26381260298882)"><g clip-path="url(#i44)"><polygon points="-4.82241564e-14,1.05703998e-14 5.01545213,1.05703998e-14 5.01545213,3.64167548 -4.82241564e-14,3.64167548 -4.82241564e-14,1.05703998e-14" stroke="none" fill="#751638"></polygon></g></g><g transform="translate(630.8823350076352 197.79655949692653)"><g clip-path="url(#i45)"><polygon points="6.44292914e-15,1.66376006e-14 5.04952512,1.66376006e-14 5.04952512,2.84888101 6.44292914e-15,2.84888101 6.44292914e-15,1.66376006e-14" stroke="none" fill="#751638"></polygon></g></g><g transform="translate(629.7716300605059 201.56362044849766)"><g clip-path="url(#i46)"><polygon points="-1.84927328e-14,4.46704706e-15 5.62591419,4.46704706e-15 5.62591419,4.50173497 -1.84927328e-14,4.50173497 -1.84927328e-14,4.46704706e-15" stroke="none" fill="#751638"></polygon></g></g><g transform="translate(627.5450214401076 206.0684762362397)"><g clip-path="url(#i47)"><polygon points="-4.95338721e-14,-2.45379957e-14 5.86428302,-2.45379957e-14 5.86428302,5.4465309 -4.95338721e-14,5.4465309 -4.95338721e-14,-2.45379957e-14" stroke="none" fill="#751638"></polygon></g></g><g transform="translate(588.7401483386082 206.62018613946083)"><g clip-path="url(#i48)"><polygon points="-4.02993676e-16,-3.21348294e-15 5.7519456,-3.21348294e-15 5.7519456,4.51378418 -4.02993676e-16,4.51378418 -4.02993676e-16,-3.21348294e-15" stroke="none" fill="#751638"></polygon></g></g><g transform="translate(585.7991028442813 200.3117459894532)"><g clip-path="url(#i49)"><polygon points="4.78575399e-14,-2.13466836e-14 6.15271492,-2.13466836e-14 6.15271492,6.35909155 4.78575399e-14,6.35909155 4.78575399e-14,-2.13466836e-14" stroke="none" fill="#751638"></polygon></g></g><g transform="translate(585.2261000000001 195.12774258141656)"><g clip-path="url(#i50)"><polygon points="0,-2.06444493e-14 4.99166659,-2.06444493e-14 4.99166659,4.46047587 0,4.46047587 0,-2.06444493e-14" stroke="none" fill="#751638"></polygon></g></g><g transform="translate(585.3181021910327 188.20498865067856)"><g clip-path="url(#i51)"><polygon points="-4.63304581e-14,1.81046903e-14 5.76927197,1.81046903e-14 5.76927197,6.0622227 -4.63304581e-14,6.0622227 -4.63304581e-14,1.81046903e-14" stroke="none" fill="#751638"></polygon></g></g><g transform="translate(587.0903000000001 183.7102824175276)"><g clip-path="url(#i52)"><polygon points="0,-1.06592917e-15 5.591,-1.06592917e-15 5.591,5.54266504 0,5.54266504 0,-1.06592917e-15" stroke="none" fill="#751638"></polygon></g></g><g transform="translate(589.2679480271787 178.34539138644567)"><g clip-path="url(#i53)"><polygon points="-5.46435931e-14,7.28402925e-16 6.9004678,7.28402925e-16 6.9004678,6.95221723 -5.46435931e-14,6.95221723 -5.46435931e-14,7.28402925e-16" stroke="none" fill="#751638"></polygon></g></g><g transform="translate(594.15277674248 174.66189999999995)"><g clip-path="url(#i54)"><polygon points="2.46480369e-14,0 6.01042326,0 6.01042326,6.02203003 2.46480369e-14,6.02203003 2.46480369e-14,0" stroke="none" fill="#751638"></polygon></g></g><g transform="translate(599.2777654172814 171.54449047461867)"><g clip-path="url(#i55)"><polygon points="-1.88105944e-15,2.4057291e-14 5.78234279,2.4057291e-14 5.78234279,6.2949989 -1.88105944e-15,6.2949989 -1.88105944e-15,2.4057291e-14" stroke="none" fill="#751638"></polygon></g></g><g transform="translate(597.3439999999999 215.07029999999997)"><g clip-path="url(#i56)"><polygon points="0,0 1.326,0 1.326,1.327 0,1.327 0,0" stroke="none" fill="#751638"></polygon></g></g><g transform="translate(622.5393 215.07029999999997)"><g clip-path="url(#i57)"><polygon points="0,0 1.326,0 1.326,1.327 0,1.327 0,0" stroke="none" fill="#751638"></polygon></g></g><g transform="translate(601.0331061358474 215.53528435556842)"><g clip-path="url(#i58)"><polygon points="-2.27362345e-14,-6.96479469e-15 3.44346235,-6.96479469e-15 3.44346235,5.08877432 -2.27362345e-14,5.08877432 -2.27362345e-14,-6.96479469e-15" stroke="none" fill="#751638"></polygon></g></g><g transform="translate(606.1398986701538 216.4058264834219)"><g clip-path="url(#i59)"><polygon points="-3.46034243e-14,-1.67745741e-14 3.63198302,-1.67745741e-14 3.63198302,4.79026909 -3.46034243e-14,4.79026909 -3.46034243e-14,-1.67745741e-14" stroke="none" fill="#751638"></polygon></g></g><g transform="translate(611.1567103346506 216.45939505555958)"><g clip-path="url(#i60)"><polygon points="4.88523526e-15,2.08724472e-14 3.60409692,2.08724472e-14 3.60409692,4.92837144 4.88523526e-15,4.92837144 4.88523526e-15,2.08724472e-14" stroke="none" fill="#751638"></polygon></g></g><g transform="translate(615.7517241499254 215.58759750518215)"><g clip-path="url(#i61)"><polygon points="-5.80969018e-15,2.45870136e-14 3.83727185,2.45870136e-14 3.83727185,4.94163769 -5.80969018e-15,4.94163769 -5.80969018e-15,2.45870136e-14" stroke="none" fill="#751638"></polygon></g></g><g transform="translate(582.2859000000001 167.82619999999997)"><g clip-path="url(#i62)"><polygon points="0,0 56.693,0 56.693,56.692 0,56.692 0,0" stroke="none" fill="#751638"></polygon></g></g><g transform="translate(605.4565261081503 197.9353325450478)"><g clip-path="url(#i63)"><polygon points="0.0564738918,0.298177772 0.943526108,0.298177772 0.943526108,0.701822228 0.0564738918,0.701822228 0.0564738918,0.298177772" stroke="none" fill="#751638"></polygon></g></g><g transform="translate(604.1206519013656 201.53613239475595)"><g clip-path="url(#i64)"><polygon points="5.24961318e-14,0.217565136 3.34848788,0.217565136 3.34848788,0.782434864 5.24961318e-14,0.782434864 5.24961318e-14,0.217565136" stroke="none" fill="#751638"></polygon></g></g><g transform="translate(593.3947000000001 178.9024)"><g clip-path="url(#i65)"><polygon points="0,0 34.476,0 34.476,34.476 0,34.476 0,0" stroke="none" fill="#751638"></polygon></g></g><g transform="translate(618.0574065464998 188.06188390338156)"><g clip-path="url(#i66)"><polygon points="-2.07939823e-14,9.06551231e-15 1.19119602,9.06551231e-15 1.19119602,1.0816161 -2.07939823e-14,1.0816161 -2.07939823e-14,9.06551231e-15" stroke="none" fill="#751638"></polygon></g></g><g transform="translate(615.0478077541966 188.18357389039517)"><g clip-path="url(#i67)"><polygon points="2.5547075e-14,-1.25072359e-14 1.05232033,-1.25072359e-14 1.05232033,1.01462611 2.5547075e-14,1.01462611 2.5547075e-14,-1.25072359e-14" stroke="none" fill="#751638"></polygon></g></g></g></g></svg>